<svg width="1122" height="184" viewBox="0 0 1122 184" fill="none" xmlns="http://www.w3.org/2000/svg">
<path d="M127.513 183.316H127.513C134.405 183.316 139.517 181.576 142.909 178.194C146.3 174.812 148.055 169.706 148.055 162.797C148.055 157.261 148.891 153.478 151.266 151.105C153.64 148.733 157.428 147.898 162.969 147.898C169.859 147.898 174.971 146.145 178.364 142.757C181.756 139.368 183.51 134.262 183.51 127.379C183.51 120.495 181.756 115.389 178.364 112.001C174.971 108.612 169.859 106.859 162.969 106.859C156.077 106.859 150.965 108.599 147.573 111.981C144.182 115.363 142.427 120.469 142.427 127.379C142.427 132.914 141.591 136.698 139.216 139.07C136.841 141.442 133.054 142.277 127.513 142.277H56.4972C50.9563 142.277 47.1689 141.442 44.7944 139.07C42.4197 136.698 41.5835 132.914 41.5835 127.379C41.5835 121.843 42.4197 118.06 44.7944 115.687C47.1689 113.315 50.9563 112.48 56.4972 112.48H92.0052C98.896 112.48 104.008 110.727 107.4 107.339C110.792 103.95 112.547 98.8439 112.547 91.9607C112.547 85.0766 110.805 79.9705 107.42 76.5823C104.034 73.1942 98.9227 71.4412 92.0052 71.4412H56.4972C50.957 71.4412 47.1696 70.6128 44.7949 68.2476C42.4197 65.8819 41.5835 62.1042 41.5835 56.5691C41.5835 51.0337 42.4198 47.2439 44.7939 44.8654C47.1682 42.4865 50.9555 41.6445 56.4972 41.6445H92.0052C97.5468 41.6445 101.334 42.4865 103.708 44.8654C106.083 47.2439 106.919 51.0337 106.919 56.5691C106.919 63.4523 108.673 68.5586 112.065 71.9472C115.458 75.3359 120.57 77.0887 127.461 77.0887C134.351 77.0887 139.463 75.3359 142.856 71.9472C146.248 68.5586 148.002 63.4523 148.002 56.5691C148.002 49.685 146.26 44.5789 142.875 41.1907C139.49 37.8026 134.378 36.0496 127.461 36.0496C121.92 36.0496 118.132 35.2143 115.758 32.8423C113.383 30.4701 112.547 26.6863 112.547 21.1511C112.547 14.267 110.805 9.16083 107.42 5.77264C104.034 2.38453 98.9227 0.6315 92.0052 0.6315H56.4972C49.5921 0.6315 44.4805 2.37176 41.0921 5.75343C37.7038 9.13492 35.9554 14.2407 35.9554 21.1511C35.9554 26.6863 35.1192 30.4701 32.7446 32.8423C30.37 35.2143 26.5827 36.0496 21.0418 36.0496C14.1376 36.0496 9.02579 37.8025 5.63699 41.1909C2.2482 44.5793 0.5 49.6855 0.5 56.5691C0.5 63.4537 2.23553 68.5597 5.61759 71.9477C8.9995 75.3355 14.1108 77.0887 21.0418 77.0887C26.5827 77.0887 30.37 77.9239 32.7446 80.2959C35.1192 82.668 35.9554 86.4517 35.9554 91.987C35.9554 97.5223 35.1192 101.306 32.7446 103.678C30.37 106.05 26.5827 106.885 21.0418 106.885C14.1367 106.885 9.02507 108.626 5.63666 112.007C2.24843 115.389 0.5 120.495 0.5 127.405V162.875C0.5 169.76 2.23553 174.866 5.61759 178.254C8.99944 181.642 14.1106 183.395 21.0414 183.395L127.513 183.316ZM127.513 183.316L21.0418 183.395L127.513 183.316Z" stroke="#F1F1F1"/>
<path d="M296.978 162.875V162.877C297.004 169.76 295.262 174.866 291.871 178.253C288.479 181.642 283.354 183.395 276.436 183.395C269.519 183.395 264.407 181.642 261.022 178.254C257.636 174.866 255.895 169.759 255.895 162.875C255.895 157.34 255.058 153.556 252.684 151.184C250.309 148.812 246.522 147.977 240.981 147.977C234.05 147.977 228.939 146.224 225.557 142.836C222.175 139.448 220.439 134.342 220.439 127.457C220.439 121.922 219.603 118.138 217.228 115.766C214.854 113.394 211.066 112.559 205.526 112.559C198.595 112.559 193.483 110.806 190.101 107.418C186.719 104.03 184.984 98.9241 184.984 92.0395V56.569C184.984 49.6458 186.739 44.5401 190.13 41.1619C193.522 37.7833 198.633 36.0495 205.526 36.0495C212.416 36.0495 217.528 37.8023 220.921 41.191C224.313 44.5795 226.067 49.6859 226.067 56.569V92.0395C226.067 97.5748 226.903 101.359 229.278 103.731C231.653 106.103 235.44 106.938 240.981 106.938C247.898 106.938 253.01 108.691 256.395 112.079C259.781 115.467 261.523 120.573 261.523 127.457C261.523 132.993 262.359 136.776 264.734 139.149C267.108 141.521 270.895 142.356 276.436 142.356C281.977 142.356 285.765 141.521 288.139 139.149C290.514 136.776 291.35 132.993 291.35 127.457C291.35 120.548 293.105 115.442 296.496 112.06C299.888 108.678 305 106.938 311.892 106.938C317.433 106.938 321.22 106.103 323.594 103.731C325.969 101.359 326.805 97.5748 326.805 92.0395V21.0984C326.805 14.1885 328.56 9.08261 331.952 5.70092C335.343 2.31898 340.455 0.578827 347.347 0.578827C354.238 0.578827 359.35 2.33163 362.742 5.7203C366.134 9.10888 367.889 14.2152 367.889 21.0984V92.0395C367.889 98.9494 366.134 104.055 362.742 107.437C359.351 110.819 354.239 112.559 347.347 112.559C341.806 112.559 338.019 113.394 335.644 115.766C333.27 118.138 332.433 121.922 332.433 127.457C332.433 134.367 330.679 139.473 327.287 142.855C323.895 146.237 318.783 147.977 311.892 147.977C306.351 147.977 302.563 148.812 300.189 151.184C297.814 153.556 296.978 157.34 296.978 162.875Z" stroke="#F1F1F1"/>
<path d="M501.557 183.316H501.557C508.449 183.316 513.56 181.576 516.952 178.194C520.344 174.812 522.099 169.706 522.099 162.797C522.099 157.261 522.935 153.478 525.31 151.105C527.684 148.733 531.471 147.898 537.012 147.898C543.903 147.898 549.015 146.145 552.407 142.757C555.8 139.368 557.554 134.262 557.554 127.379C557.554 120.495 555.8 115.389 552.407 112.001C549.015 108.612 543.903 106.859 537.012 106.859C530.121 106.859 525.009 108.599 521.617 111.981C518.225 115.363 516.471 120.469 516.471 127.379C516.471 132.914 515.634 136.698 513.26 139.07C510.885 141.442 507.098 142.277 501.557 142.277H430.541C425 142.277 421.213 141.442 418.838 139.07C416.463 136.698 415.627 132.914 415.627 127.379C415.627 121.843 416.463 118.06 418.838 115.687C421.213 113.315 425 112.48 430.541 112.48H466.049C472.94 112.48 478.052 110.727 481.444 107.339C484.836 103.95 486.591 98.8439 486.591 91.9607C486.591 85.0766 484.849 79.9705 481.463 76.5823C478.078 73.1942 472.966 71.4412 466.049 71.4412H430.541C425.001 71.4412 421.213 70.6128 418.839 68.2476C416.463 65.8819 415.627 62.1042 415.627 56.5691C415.627 51.0337 416.463 47.2439 418.838 44.8654C421.212 42.4865 424.999 41.6445 430.541 41.6445H466.023C471.564 41.6445 475.352 42.4865 477.726 44.8654C480.1 47.2439 480.936 51.0337 480.936 56.5691C480.936 63.4523 482.691 68.5586 486.083 71.9472C489.475 75.3359 494.587 77.0887 501.478 77.0887C508.369 77.0887 513.481 75.3359 516.873 71.9472C520.265 68.5586 522.02 63.4523 522.02 56.5691C522.02 49.685 520.278 44.5789 516.892 41.1907C513.507 37.8026 508.396 36.0496 501.478 36.0496C495.937 36.0496 492.15 35.2143 489.775 32.8423C487.401 30.4701 486.564 26.6863 486.564 21.1511C486.564 14.267 484.822 9.16083 481.437 5.77264C478.052 2.38453 472.94 0.6315 466.023 0.6315H430.515C423.609 0.6315 418.498 2.37176 415.109 5.75343C411.721 9.13492 409.973 14.2407 409.973 21.1511C409.973 26.6863 409.137 30.4701 406.762 32.8423C404.387 35.2143 400.6 36.0496 395.059 36.0496C388.168 36.0496 383.056 37.8024 379.664 41.191C376.272 44.5796 374.517 49.686 374.517 56.5691C374.517 63.4537 376.253 68.5597 379.635 71.9477C383.017 75.3355 388.128 77.0887 395.059 77.0887C400.6 77.0887 404.387 77.9239 406.762 80.2959C409.137 82.668 409.973 86.4518 409.973 91.987C409.973 97.5223 409.137 101.306 406.762 103.678C404.387 106.05 400.6 106.885 395.059 106.885C388.168 106.885 383.056 108.626 379.664 112.007C376.272 115.389 374.517 120.495 374.517 127.405V162.875C374.517 169.76 376.253 174.866 379.635 178.254C383.017 181.642 388.128 183.395 395.059 183.395L501.557 183.316ZM501.557 183.316L395.059 183.395L501.557 183.316Z" stroke="#F1F1F1"/>
<path d="M726.73 183.395C719.813 183.395 714.701 181.642 711.316 178.254C707.93 174.865 706.188 169.759 706.188 162.875V127.405C706.188 121.869 705.352 118.086 702.978 115.714C700.603 113.342 696.816 112.506 691.275 112.506C684.357 112.506 679.246 110.753 675.86 107.365C672.475 103.977 670.733 98.8709 670.733 91.9868C670.733 86.4516 669.897 82.6679 667.522 80.2957C665.148 77.9237 661.36 77.0885 655.819 77.0885C648.889 77.0885 643.777 75.3354 640.395 71.9475C637.013 68.5595 635.278 63.4535 635.278 56.569C635.278 51.0335 634.441 47.2438 632.067 44.8652C629.693 42.4863 625.906 41.6443 620.364 41.6443C614.822 41.6443 611.035 42.4863 608.661 44.8652C606.287 47.2438 605.45 51.0335 605.45 56.569V162.98C605.45 169.89 603.696 174.996 600.304 178.378C596.912 181.76 591.8 183.5 584.909 183.5C578.018 183.5 572.906 181.747 569.514 178.359C566.121 174.97 564.367 169.864 564.367 162.98V21.0983C564.367 14.1884 566.122 9.08252 569.513 5.70084C572.905 2.31889 578.017 0.57874 584.909 0.57874H620.443C627.361 0.57874 632.472 2.33177 635.858 5.71988C639.243 9.10807 640.985 14.2142 640.985 21.0983C640.985 26.6336 641.821 30.4173 644.196 32.7895C646.57 35.1615 650.357 35.9968 655.898 35.9968C662.816 35.9968 667.927 37.7498 671.313 41.1379C674.698 44.5261 676.44 49.6323 676.44 56.5164C676.44 62.0387 677.276 65.8159 679.651 68.1848C682.026 70.5532 685.813 71.3884 691.354 71.3884C696.895 71.3884 700.682 70.5532 703.056 68.1848C705.431 65.8159 706.267 62.0387 706.267 56.5164V21.0196C706.267 14.1097 708.022 9.00378 711.414 5.6221C714.806 2.24015 719.917 0.5 726.809 0.5C733.7 0.5 738.812 2.2528 742.204 5.64147C745.596 9.03005 747.351 14.1364 747.351 21.0196V162.901C747.338 169.771 745.577 174.87 742.175 178.256C738.773 181.642 733.648 183.395 726.73 183.395Z" stroke="#F1F1F1"/>
<path d="M845.616 183.395C838.685 183.395 833.574 181.642 830.192 178.254C826.81 174.866 825.074 169.76 825.074 162.875V91.9343C825.074 86.399 824.238 82.6155 821.867 80.2434C819.496 77.8713 815.715 77.036 810.187 77.036C803.256 77.036 798.145 75.2828 794.763 71.895C791.381 68.507 789.645 63.401 789.645 56.5164C789.645 50.981 788.809 47.1912 786.435 44.8126C784.061 42.4338 780.273 41.5918 774.732 41.5918C767.814 41.5918 762.702 39.845 759.317 36.4602C755.932 33.0755 754.19 27.9695 754.19 21.072C754.19 14.1755 755.944 9.06941 759.336 5.68427C762.728 2.29896 767.84 0.55249 774.732 0.55249H916.764C923.681 0.55249 928.793 2.30552 932.178 5.69363C935.563 9.08182 937.305 14.1879 937.305 21.072C937.305 27.9552 935.551 33.0616 932.159 36.4502C928.766 39.8389 923.654 41.5918 916.764 41.5918H845.748C840.206 41.5918 836.419 42.4338 834.044 44.8126C831.67 47.1912 830.834 50.981 830.834 56.5164C830.834 62.0515 831.67 65.8292 834.045 68.1949C836.42 70.5601 840.207 71.3885 845.748 71.3885C852.665 71.3885 857.777 73.1415 861.162 76.5296C864.547 79.9178 866.289 85.0239 866.289 91.908L866.289 162.846C866.289 162.847 866.289 162.847 866.289 162.848C866.25 169.744 864.476 174.857 861.068 178.249C857.659 181.642 852.533 183.395 845.616 183.395Z" stroke="#F1F1F1"/>
<path d="M994.487 183.395C987.556 183.395 982.444 181.642 979.063 178.254C975.68 174.866 973.945 169.76 973.945 162.875C973.945 157.34 973.109 153.556 970.734 151.184C968.36 148.812 964.572 147.977 959.031 147.977C952.114 147.977 947.002 146.224 943.617 142.836C940.231 139.448 938.49 134.342 938.49 127.458C938.49 120.574 940.244 115.468 943.636 112.079C947.029 108.691 952.141 106.938 959.031 106.938C965.922 106.938 971.034 108.691 974.426 112.079C977.819 115.468 979.573 120.574 979.573 127.458C979.573 132.993 980.409 136.777 982.784 139.149C985.158 141.521 988.946 142.356 994.487 142.356H1065.5C1071.04 142.356 1074.83 141.521 1077.21 139.149C1079.58 136.777 1080.42 132.993 1080.42 127.458C1080.42 121.922 1079.58 118.139 1077.21 115.766C1074.83 113.394 1071.04 112.559 1065.5 112.559H994.487C987.556 112.559 982.444 110.806 979.063 107.418C975.68 104.03 973.945 98.9242 973.945 92.0396C973.945 86.5044 973.109 82.7206 970.734 80.3484C968.36 77.9763 964.572 77.141 959.031 77.141C952.114 77.141 947.002 75.388 943.617 71.9998C940.231 68.6117 938.49 63.5055 938.49 56.6214C938.49 49.7383 940.244 44.6319 943.636 41.2434C947.029 37.8547 952.141 36.1019 959.031 36.1019C964.572 36.1019 968.36 35.2667 970.734 32.8948C973.109 30.5226 973.945 26.739 973.945 21.2037C973.945 14.2938 975.7 9.18792 979.091 5.80624C982.483 2.42429 987.595 0.684143 994.487 0.684143H1065.5C1072.42 0.684143 1077.53 2.43717 1080.92 5.82528C1084.3 9.21347 1086.04 14.3196 1086.04 21.2037C1086.04 26.739 1086.88 30.5226 1089.26 32.8948C1091.63 35.2667 1095.42 36.1019 1100.96 36.1019C1107.88 36.1019 1112.99 37.8549 1116.37 41.243C1119.76 44.6312 1121.5 49.7373 1121.5 56.6214C1121.5 63.5046 1119.75 68.6109 1116.35 71.9995C1112.96 75.3882 1107.85 77.141 1100.96 77.141C1094.07 77.141 1088.96 75.3882 1085.56 71.9995C1082.17 68.6109 1080.42 63.5046 1080.42 56.6214C1080.42 51.086 1079.58 47.2963 1077.21 44.9177C1074.83 42.5388 1071.04 41.6968 1065.5 41.6968H994.487C988.945 41.6968 985.158 42.5388 982.783 44.9177C980.409 47.2963 979.573 51.086 979.573 56.6214C979.573 62.1566 980.409 65.9343 982.785 68.3001C985.159 70.6653 988.947 71.4938 994.487 71.4938H1065.5C1072.42 71.4938 1077.53 73.2468 1080.92 76.6349C1084.3 80.0231 1086.04 85.1292 1086.04 92.0134C1086.04 97.5486 1086.88 101.332 1089.26 103.704C1091.63 106.076 1095.42 106.912 1100.96 106.912C1107.88 106.912 1112.99 108.665 1116.37 112.053C1119.76 115.441 1121.5 120.547 1121.5 127.431C1121.5 134.314 1119.75 139.421 1116.35 142.809C1112.96 146.198 1107.85 147.951 1100.96 147.951C1095.42 147.951 1091.63 148.786 1089.26 151.158C1086.88 153.53 1086.04 157.314 1086.04 162.849C1086.04 169.759 1084.29 174.865 1080.9 178.247C1077.51 181.629 1072.39 183.369 1065.5 183.369L994.487 183.395Z" stroke="#F1F1F1"/>
</svg>
