<svg width="1122" height="114" viewBox="0 0 1122 114" fill="none" xmlns="http://www.w3.org/2000/svg">
<path d="M100.543 113.435C96.2948 113.435 93.1966 112.357 91.157 110.307C89.1169 108.256 88.053 105.149 88.053 100.914V78.9406C88.053 75.5045 87.5346 73.091 86.0089 71.5639C84.483 70.0366 82.0747 69.5211 78.6548 69.5211C74.4065 69.5211 71.3083 68.443 69.2688 66.3928C67.2287 64.3421 66.1647 61.2355 66.1647 56.9999C66.1647 53.5645 65.6507 51.1509 64.127 49.6236C62.603 48.0959 60.1942 47.5805 56.7666 47.5805C52.5266 47.5805 49.4282 46.5026 47.3864 44.4521C45.3443 42.4012 44.2765 39.2944 44.2765 35.0594C44.2765 31.624 43.7625 29.2103 42.2388 27.683C40.7147 26.1553 38.3059 25.6399 34.8783 25.6399C31.4507 25.6399 29.0419 26.1553 27.5178 27.683C25.9941 29.2103 25.4801 31.624 25.4801 35.0594V100.979C25.4801 105.23 24.4045 108.336 22.3587 110.383C20.3129 112.43 17.2142 113.5 12.9901 113.5C8.76684 113.5 5.66796 112.422 3.62179 110.371C1.5754 108.32 0.5 105.213 0.5 100.979V13.0862C0.5 8.82695 1.57575 5.72068 3.62129 3.676C5.66687 1.63127 8.76542 0.565051 12.9901 0.565051H34.9108C39.1591 0.565051 42.2572 1.64309 44.2968 3.69331C46.3369 5.74401 47.4008 8.85066 47.4008 13.0862C47.4008 16.5137 47.9149 18.9233 49.4388 20.4486C50.9628 21.974 53.3713 22.4893 56.799 22.4893C61.0473 22.4893 64.1455 23.5674 66.1851 25.6176C68.2251 27.6683 69.2891 30.7749 69.2891 35.0105C69.2891 38.4459 69.8031 40.8596 71.3268 42.3869C72.8508 43.9146 75.2596 44.43 78.6873 44.43C82.1149 44.43 84.5237 43.9146 86.0478 42.3869C87.5714 40.8596 88.0855 38.4459 88.0855 35.0105V13.0373C88.0855 8.7776 89.1574 5.67145 91.2008 3.62696C93.2442 1.58251 96.3425 0.516174 100.576 0.516174C104.807 0.516174 107.906 1.59398 109.95 3.64477C111.994 5.69585 113.066 8.80272 113.066 13.0373V100.93C113.066 105.156 111.99 108.258 109.94 110.308C107.89 112.357 104.783 113.435 100.543 113.435Z" stroke="#F1F1F1"/>
<path d="M199.089 113.402H199.088L133.326 113.435C133.326 113.435 133.326 113.435 133.326 113.435C129.086 113.435 125.988 112.357 123.946 110.307C121.904 108.256 120.836 105.149 120.836 100.914V78.9407C120.836 74.6898 121.912 71.5833 123.958 69.5364C126.004 67.4896 129.102 66.4195 133.326 66.4195C136.754 66.4195 139.163 65.9042 140.687 64.3764C142.211 62.8491 142.725 60.4354 142.725 57C142.725 53.5646 142.211 51.1509 140.687 49.6236C139.163 48.0959 136.754 47.5805 133.326 47.5805C129.087 47.5805 125.988 46.5026 123.946 44.4521C121.904 42.4012 120.836 39.2945 120.836 35.0594C120.836 30.8253 121.912 27.7183 123.958 25.667C126.004 23.616 129.103 22.5383 133.326 22.5383C136.754 22.5383 139.163 22.0229 140.687 20.4952C142.211 18.9679 142.725 16.5542 142.725 13.1188C142.725 8.86796 143.8 5.76146 145.846 3.71457C147.892 1.66773 150.991 0.597687 155.215 0.597687H177.168C181.416 0.597687 184.514 1.67573 186.554 3.72595C188.594 5.77664 189.658 8.88329 189.658 13.1188C189.658 16.5542 190.172 18.9679 191.696 20.4952C193.22 22.0229 195.629 22.5383 199.056 22.5383C203.304 22.5383 206.403 23.6163 208.442 25.6665C210.482 27.7172 211.546 30.8239 211.546 35.0594C211.546 39.2935 210.471 42.4005 208.424 44.4518C206.378 46.5029 203.279 47.5805 199.056 47.5805C194.833 47.5805 191.734 46.5029 189.688 44.4518C187.642 42.4005 186.566 39.2935 186.566 35.0594C186.566 31.624 186.052 29.2103 184.528 27.683C183.004 26.1553 180.596 25.64 177.168 25.64H155.247C151.82 25.64 149.411 26.1553 147.887 27.683C146.363 29.2103 145.849 31.624 145.849 35.0594C145.849 38.4948 146.363 40.9085 147.887 42.4358C149.411 43.9635 151.82 44.4789 155.247 44.4789H177.168C181.417 44.4789 184.515 45.5531 186.554 47.6012C188.594 49.6497 189.658 52.7561 189.658 57C189.658 61.243 188.586 64.3496 186.542 66.3985C184.498 68.4472 181.4 69.5211 177.168 69.5211H155.247C151.82 69.5211 149.411 70.0365 147.887 71.5642C146.363 73.0916 145.849 75.5053 145.849 78.9407C145.849 82.3761 146.363 84.7897 147.887 86.3171C149.411 87.8448 151.82 88.3601 155.247 88.3601H199.089C202.516 88.3601 204.925 87.8448 206.449 86.3171C207.973 84.7897 208.487 82.3761 208.487 78.9407C208.487 74.6898 209.562 71.5833 211.608 69.5364C213.654 67.4896 216.753 66.4195 220.977 66.4195C225.2 66.4195 228.299 67.4972 230.345 69.5483C232.392 71.5996 233.467 74.7066 233.467 78.9407C233.467 83.1748 232.392 86.2818 230.345 88.3331C228.299 90.3841 225.2 91.4618 220.977 91.4618C217.549 91.4618 215.14 91.9772 213.616 93.5049C212.093 95.0322 211.579 97.4459 211.579 100.881C211.579 105.132 210.503 108.239 208.457 110.286C206.411 112.332 203.313 113.402 199.089 113.402Z" stroke="#F1F1F1"/>
<path d="M352.196 100.914L352.196 100.917C352.22 105.15 351.156 108.256 349.111 110.306C347.065 112.357 343.955 113.435 339.706 113.435C335.466 113.435 332.368 112.357 330.326 110.307C328.284 108.256 327.216 105.149 327.216 100.914C327.216 97.4784 326.702 95.0647 325.178 93.5374C323.654 92.0097 321.246 91.4943 317.818 91.4943C313.578 91.4943 310.48 90.4163 308.438 88.3658C306.396 86.315 305.328 83.2082 305.328 78.9731C305.328 75.5377 304.814 73.1241 303.29 71.5967C301.766 70.0691 299.357 69.5537 295.93 69.5537C292.502 69.5537 290.093 70.0691 288.569 71.5967C287.045 73.1241 286.531 75.5377 286.531 78.9731C286.531 83.224 285.456 86.3305 283.41 88.3774C281.364 90.4242 278.266 91.4943 274.041 91.4943C270.614 91.4943 268.205 92.0097 266.681 93.5374C265.157 95.0647 264.643 97.4784 264.643 100.914C264.643 105.165 263.568 108.271 261.522 110.318C259.476 112.365 256.377 113.435 252.153 113.435C247.93 113.435 244.831 112.357 242.785 110.306C240.738 108.255 239.663 105.148 239.663 100.914V13.0211C239.663 8.7619 240.739 5.65563 242.784 3.61095C244.83 1.56622 247.929 0.5 252.153 0.5C256.376 0.5 259.475 1.57769 261.521 3.62876C263.568 5.68004 264.643 8.78702 264.643 13.0211V56.9675C264.643 60.4029 265.157 62.8165 266.681 64.3439C268.205 65.8716 270.614 66.3869 274.041 66.3869C277.469 66.3869 279.878 65.8716 281.402 64.3439C282.926 62.8165 283.44 60.4029 283.44 56.9675C283.44 52.7082 284.515 49.602 286.561 47.5573C288.606 45.5126 291.705 44.4463 295.93 44.4463C300.153 44.4463 303.252 45.5202 305.298 47.5692C307.344 49.6182 308.42 52.725 308.42 56.9675C308.42 60.4029 308.934 62.8165 310.457 64.3439C311.981 65.8716 314.39 66.3869 317.818 66.3869C321.246 66.3869 323.654 65.8716 325.178 64.3439C326.702 62.8165 327.216 60.4029 327.216 56.9675V34.9943C327.216 30.7351 328.292 27.6288 330.337 25.5841C332.383 23.5394 335.482 22.4732 339.706 22.4732C343.929 22.4732 347.028 23.5509 349.074 25.6019C351.121 27.6532 352.196 30.7602 352.196 34.9943L352.196 100.914Z" stroke="#F1F1F1"/>
<path d="M464.086 113.435C459.846 113.435 456.748 112.357 454.706 110.307C452.664 108.256 451.596 105.149 451.596 100.914C451.596 97.4784 451.082 95.0647 449.558 93.5374C448.034 92.0097 445.625 91.4943 442.198 91.4943C437.958 91.4943 434.859 90.4163 432.817 88.3658C430.775 86.3149 429.708 83.2082 429.708 78.9731C429.708 74.739 430.783 71.632 432.829 69.5807C434.875 67.5297 437.974 66.452 442.198 66.452C446.421 66.452 449.52 67.5297 451.566 69.5807C453.612 71.632 454.688 74.739 454.688 78.9731C454.688 82.4085 455.202 84.8222 456.725 86.3496C458.249 87.8773 460.658 88.3927 464.086 88.3927C467.513 88.3927 469.922 87.8773 471.446 86.3496C472.97 84.8222 473.484 82.4085 473.484 78.9731V35.0268C473.484 31.5914 472.97 29.1777 471.446 27.6504C469.922 26.1227 467.513 25.6073 464.086 25.6073C460.658 25.6073 458.249 26.1227 456.725 27.6504C455.202 29.1777 454.688 31.5914 454.688 35.0268C454.688 39.2777 453.612 42.3842 451.566 44.431C449.52 46.4779 446.422 47.5479 442.198 47.5479C437.974 47.5479 434.875 46.4702 432.829 44.4192C430.783 42.3679 429.708 39.2609 429.708 35.0268C429.708 30.7927 430.783 27.6857 432.829 25.6344C434.875 23.5833 437.974 22.5057 442.198 22.5057C445.625 22.5057 448.034 21.9903 449.558 20.4649C451.082 18.9397 451.596 16.53 451.596 13.1025C451.596 8.84326 452.672 5.73699 454.717 3.69231C456.763 1.64758 459.861 0.58136 464.086 0.58136H507.927C512.176 0.58136 515.274 1.6594 517.313 3.70962C519.353 5.76032 520.417 8.86696 520.417 13.1025C520.417 16.53 520.931 18.9397 522.455 20.4649C523.979 21.9903 526.388 22.5057 529.815 22.5057C534.064 22.5057 537.162 23.5837 539.202 25.6339C541.242 27.6846 542.306 30.7913 542.306 35.0268C542.306 39.2609 541.23 42.3679 539.184 44.4192C537.138 46.4702 534.039 47.5479 529.815 47.5479C525.592 47.5479 522.493 46.4702 520.447 44.4192C518.401 42.3679 517.325 39.2609 517.325 35.0268C517.325 31.5914 516.811 29.1777 515.288 27.6504C513.764 26.1227 511.355 25.6073 507.927 25.6073C504.5 25.6073 502.091 26.1227 500.567 27.6504C499.043 29.1777 498.529 31.5914 498.529 35.0268V78.9731C498.529 82.4085 499.043 84.8222 500.567 86.3496C502.091 87.8773 504.5 88.3927 507.927 88.3927C511.355 88.3927 513.764 87.8773 515.288 86.3496C516.811 84.8222 517.325 82.4085 517.325 78.9731C517.325 74.7223 518.401 71.6158 520.447 69.5689C522.493 67.522 525.591 66.452 529.815 66.452C534.039 66.452 537.138 67.5297 539.184 69.5807C541.23 71.632 542.306 74.739 542.306 78.9731C542.306 83.2072 541.23 86.3142 539.184 88.3655C537.138 90.4166 534.039 91.4943 529.815 91.4943C526.388 91.4943 523.979 92.0097 522.455 93.5374C520.931 95.0647 520.417 97.4784 520.417 100.914C520.417 105.165 519.346 108.272 517.302 110.318C515.258 112.365 512.16 113.435 507.927 113.435H464.086Z" stroke="#F1F1F1"/>
<path d="M599.832 113.435C595.593 113.435 592.494 112.357 590.452 110.307C588.41 108.256 587.342 105.149 587.342 100.914V56.9675C587.342 53.5321 586.828 51.1184 585.305 49.591C583.781 48.0633 581.372 47.5479 577.944 47.5479C573.704 47.5479 570.606 46.47 568.564 44.4195C566.522 42.3686 565.454 39.2618 565.454 35.0268C565.454 31.5914 564.94 29.1777 563.416 27.6504C561.892 26.1227 559.484 25.6073 556.056 25.6073C551.816 25.6073 548.718 24.5294 546.676 22.4789C544.634 20.428 543.566 17.3213 543.566 13.0862C543.566 8.85208 544.641 5.7451 546.688 3.69382C548.734 1.64276 551.833 0.565063 556.056 0.565063H643.739C647.987 0.565063 651.085 1.6431 653.125 3.69333C655.165 5.74402 656.229 8.85067 656.229 13.0862C656.229 17.3208 655.157 20.4277 653.113 22.4787C651.069 24.5295 647.971 25.6073 643.739 25.6073H599.897C596.47 25.6073 594.061 26.1227 592.537 27.6504C591.013 29.1777 590.499 31.5914 590.499 35.0268C590.499 38.4622 591.013 40.8759 592.537 42.4032C594.061 43.9309 596.47 44.4463 599.897 44.4463C604.138 44.4463 607.236 45.5204 609.278 47.5688C611.32 49.6175 612.388 52.724 612.388 56.9675V100.912C612.372 105.146 611.288 108.254 609.234 110.306C607.18 112.357 604.072 113.435 599.832 113.435Z" stroke="#F1F1F1"/>
<path d="M733.955 113.402H733.954L668.192 113.435C668.192 113.435 668.192 113.435 668.192 113.435C663.952 113.435 660.854 112.357 658.812 110.307C656.77 108.256 655.702 105.149 655.702 100.914V78.9407C655.702 74.6898 656.778 71.5833 658.824 69.5364C660.87 67.4896 663.968 66.4195 668.192 66.4195C671.62 66.4195 674.029 65.9042 675.553 64.3764C677.077 62.8491 677.591 60.4354 677.591 57C677.591 53.5646 677.077 51.1509 675.553 49.6236C674.029 48.0959 671.62 47.5805 668.192 47.5805C663.953 47.5805 660.854 46.5026 658.812 44.4521C656.77 42.4012 655.702 39.2945 655.702 35.0594C655.702 30.8253 656.778 27.7183 658.824 25.667C660.87 23.616 663.969 22.5383 668.192 22.5383C671.62 22.5383 674.029 22.0229 675.553 20.4952C677.077 18.9679 677.591 16.5542 677.591 13.1188C677.591 8.86796 678.666 5.76146 680.712 3.71457C682.758 1.66773 685.857 0.597687 690.081 0.597687H712.001C716.241 0.597687 719.34 1.67561 721.382 3.72612C723.424 5.77701 724.491 8.88376 724.491 13.1188C724.491 16.5542 725.005 18.9679 726.529 20.4952C728.053 22.0229 730.462 22.5383 733.89 22.5383C738.13 22.5383 741.228 23.6162 743.27 25.6667C745.312 27.7176 746.38 30.8244 746.38 35.0594C746.38 39.2935 745.304 42.4005 743.258 44.4518C741.212 46.5029 738.113 47.5805 733.89 47.5805C729.666 47.5805 726.567 46.5029 724.521 44.4518C722.475 42.4005 721.4 39.2935 721.4 35.0594C721.4 31.624 720.886 29.2103 719.362 27.683C717.838 26.1553 715.429 25.64 712.001 25.64H690.113C686.686 25.64 684.277 26.1553 682.753 27.683C681.229 29.2103 680.715 31.624 680.715 35.0594C680.715 38.4948 681.229 40.9085 682.753 42.4358C684.277 43.9635 686.686 44.4789 690.113 44.4789H712.034C716.274 44.4789 719.373 45.553 721.414 47.6013C723.456 49.65 724.524 52.7566 724.524 57C724.524 61.2425 723.448 64.3492 721.402 66.3983C719.356 68.4473 716.258 69.5211 712.034 69.5211H690.113C686.686 69.5211 684.277 70.0365 682.753 71.5642C681.229 73.0916 680.715 75.5053 680.715 78.9407C680.715 82.3761 681.229 84.7898 682.753 86.3171C684.277 87.8448 686.686 88.3601 690.113 88.3601H733.955C737.382 88.3601 739.791 87.8448 741.315 86.3171C742.839 84.7897 743.353 82.3761 743.353 78.9407C743.353 74.6898 744.428 71.5833 746.474 69.5364C748.52 67.4896 751.619 66.4195 755.843 66.4195C760.066 66.4195 763.165 67.4972 765.211 69.5483C767.257 71.5996 768.333 74.7066 768.333 78.9407C768.333 83.1753 767.261 86.2821 765.217 88.3332C763.173 90.384 760.074 91.4618 755.843 91.4618C752.415 91.4618 750.006 91.9772 748.482 93.5049C746.959 95.0322 746.445 97.4459 746.445 100.881C746.445 105.132 745.369 108.239 743.323 110.286C741.277 112.332 738.179 113.402 733.955 113.402Z" stroke="#F1F1F1"/>
<path d="M886.964 100.914L886.964 100.921C887.028 105.155 885.987 108.259 883.957 110.307C881.926 112.357 878.82 113.435 874.571 113.435C870.331 113.435 867.233 112.357 865.191 110.307C863.149 108.256 862.081 105.149 862.081 100.914C862.081 97.4784 861.567 95.0647 860.044 93.5374C858.52 92.0097 856.111 91.4943 852.683 91.4943H808.809C805.382 91.4943 802.973 92.0097 801.449 93.5374C799.925 95.0647 799.411 97.4784 799.411 100.914C799.411 105.165 798.335 108.271 796.29 110.318C794.244 112.365 791.145 113.435 786.921 113.435C782.698 113.435 779.599 112.357 777.553 110.306C775.506 108.255 774.431 105.148 774.431 100.914V56.9675C774.431 52.7082 775.507 49.602 777.552 47.5573C779.598 45.5126 782.696 44.4463 786.921 44.4463C790.349 44.4463 792.757 43.9309 794.281 42.4032C795.805 40.8759 796.319 38.4622 796.319 35.0268C796.319 30.7675 797.395 27.6613 799.44 25.6166C801.486 23.5719 804.585 22.5057 808.809 22.5057C812.237 22.5057 814.645 21.9903 816.169 20.4649C817.693 18.9397 818.207 16.53 818.207 13.1025C818.207 8.84326 819.283 5.73699 821.329 3.69231C823.374 1.64758 826.473 0.58136 830.697 0.58136C834.921 0.58136 838.019 1.65905 840.066 3.71012C842.112 5.7614 843.187 8.86838 843.187 13.1025C843.187 16.53 843.702 18.9397 845.225 20.4649C846.749 21.9903 849.158 22.5057 852.586 22.5057C856.826 22.5057 859.924 23.5836 861.966 25.6341C864.008 27.685 865.076 30.7917 865.076 35.0268C865.076 38.4622 865.59 40.8759 867.113 42.4032C868.637 43.9309 871.046 44.4463 874.474 44.4463C878.723 44.4463 881.821 45.5205 883.86 47.5687C885.9 49.6172 886.964 52.7236 886.964 56.9675L886.964 100.914ZM840.193 34.9617L840.193 34.9593C840.177 31.5225 839.645 29.1098 838.109 27.5838C836.573 26.0579 834.158 25.5423 830.73 25.5423C827.302 25.5423 824.893 26.0576 823.369 27.5853C821.846 29.1127 821.332 31.5263 821.332 34.9617C821.332 39.2126 820.256 42.3191 818.21 44.366C816.165 46.4128 813.066 47.4829 808.842 47.4829C805.414 47.4829 803.005 47.9982 801.481 49.5259C799.957 51.0532 799.443 53.4669 799.443 56.9023C799.443 60.3377 799.957 62.7514 801.481 64.2787C803.005 65.8065 805.414 66.3219 808.842 66.3219H852.683C856.111 66.3219 858.52 65.8065 860.044 64.2787C861.567 62.7514 862.081 60.3377 862.081 56.9023C862.081 53.4669 861.567 51.0532 860.044 49.5259C858.52 47.9982 856.111 47.4829 852.683 47.4829C848.443 47.4829 845.345 46.4049 843.303 44.3544C841.261 42.3035 840.193 39.1968 840.193 34.9617Z" stroke="#F1F1F1"/>
<path d="M1004.3 100.914V100.916C1004.31 105.149 1003.24 108.255 1001.19 110.306C999.137 112.357 996.03 113.435 991.807 113.435C987.567 113.435 984.469 112.357 982.427 110.307C980.385 108.256 979.317 105.149 979.317 100.914V56.9675C979.317 53.5321 978.803 51.1184 977.279 49.591C975.755 48.0633 973.346 47.5479 969.919 47.5479C966.491 47.5479 964.082 48.0633 962.558 49.591C961.034 51.1184 960.52 53.5321 960.52 56.9675C960.52 61.2183 959.445 64.3248 957.399 66.3717C955.353 68.4186 952.255 69.4886 948.03 69.4886C943.807 69.4886 940.708 68.4109 938.662 66.3599C936.616 64.3086 935.54 61.2016 935.54 56.9675C935.54 53.5321 935.026 51.1184 933.503 49.591C931.979 48.0633 929.57 47.5479 926.142 47.5479C922.715 47.5479 920.306 48.0633 918.782 49.591C917.258 51.1184 916.744 53.5321 916.744 56.9675V100.914C916.744 105.165 915.668 108.271 913.623 110.318C911.577 112.365 908.478 113.435 904.254 113.435C900.031 113.435 896.932 112.357 894.886 110.306C892.839 108.255 891.764 105.148 891.764 100.914V13.0211C891.764 8.76142 892.836 5.65527 894.879 3.61078C896.923 1.56633 900.021 0.5 904.254 0.5C908.486 0.5 911.584 1.57781 913.628 3.6286C915.672 5.67968 916.744 8.78655 916.744 13.0211C916.744 16.4486 917.258 18.8583 918.782 20.3835C920.306 21.9089 922.715 22.4243 926.142 22.4243C930.382 22.4243 933.481 23.5022 935.522 25.5527C937.564 27.6036 938.632 30.7104 938.632 34.9454C938.632 38.3808 939.146 40.7945 940.67 42.3218C942.194 43.8495 944.603 44.3649 948.03 44.3649C951.458 44.3649 953.867 43.8495 955.391 42.3218C956.915 40.7945 957.429 38.3808 957.429 34.9454C957.429 30.6862 958.504 27.5799 960.55 25.5352C962.595 23.4905 965.694 22.4243 969.919 22.4243C973.346 22.4243 975.755 21.9089 977.279 20.3835C978.803 18.8583 979.317 16.4486 979.317 13.0211C979.317 8.7619 980.393 5.65563 982.438 3.61095C984.484 1.56622 987.582 0.5 991.807 0.5C996.03 0.5 999.129 1.57769 1001.18 3.62876C1003.22 5.68004 1004.3 8.78702 1004.3 13.0211V100.914Z" stroke="#F1F1F1"/>
<path d="M1043.28 113.435C1039.03 113.435 1035.93 112.357 1033.89 110.307C1031.85 108.256 1030.79 105.149 1030.79 100.914C1030.79 97.4777 1030.27 95.0643 1028.75 93.5371C1027.22 92.0098 1024.81 91.4943 1021.39 91.4943C1017.14 91.4943 1014.05 90.4163 1012.01 88.366C1009.97 86.3153 1008.9 83.2087 1008.9 78.9732C1008.9 74.739 1009.98 71.6321 1012.02 69.5808C1014.07 67.5297 1017.17 66.452 1021.39 66.452C1025.62 66.452 1028.71 67.5297 1030.76 69.5808C1032.81 71.6321 1033.88 74.739 1033.88 78.9732C1033.88 82.4086 1034.4 84.8223 1035.92 86.3496C1037.44 87.8773 1039.85 88.3927 1043.28 88.3927H1087.12C1090.55 88.3927 1092.96 87.8773 1094.48 86.3496C1096.01 84.8222 1096.52 82.4086 1096.52 78.9732C1096.52 75.5378 1096.01 73.1241 1094.48 71.5968C1092.96 70.0691 1090.55 69.5537 1087.12 69.5537H1043.28C1039.03 69.5537 1035.93 68.4757 1033.89 66.4254C1031.85 64.3747 1030.79 61.2681 1030.79 57.0326C1030.79 53.5964 1030.27 51.183 1028.75 49.6559C1027.22 48.1286 1024.81 47.6131 1021.39 47.6131C1017.14 47.6131 1014.05 46.5351 1012.01 44.4849C1009.97 42.4342 1008.9 39.3275 1008.9 35.092C1008.9 30.8579 1009.98 27.7509 1012.02 25.6996C1014.07 23.6485 1017.17 22.5708 1021.39 22.5708C1024.81 22.5708 1027.22 22.0553 1028.75 20.528C1030.27 19.0009 1030.79 16.5875 1030.79 13.1513C1030.79 8.89996 1031.86 5.79357 1033.91 3.74688C1035.95 1.70032 1039.05 0.630157 1043.28 0.630157H1087.12C1091.36 0.630157 1094.46 1.70808 1096.5 3.75859C1098.54 5.80948 1099.61 8.91623 1099.61 13.1513C1099.61 16.5867 1100.13 19.0004 1101.65 20.5277C1103.17 22.0555 1105.58 22.5708 1109.01 22.5708C1113.25 22.5708 1116.35 23.6488 1118.39 25.6993C1120.43 27.7502 1121.5 30.8569 1121.5 35.092C1121.5 39.3261 1120.42 42.4331 1118.38 44.4844C1116.33 46.5354 1113.23 47.6131 1109.01 47.6131C1104.79 47.6131 1101.69 46.5354 1099.64 44.4844C1097.6 42.4331 1096.52 39.3261 1096.52 35.092C1096.52 31.6566 1096.01 29.2429 1094.48 27.7155C1092.96 26.1878 1090.55 25.6724 1087.12 25.6724H1043.28C1039.85 25.6724 1037.44 26.1878 1035.92 27.7155C1034.4 29.2429 1033.88 31.6566 1033.88 35.092C1033.88 38.5274 1034.4 40.9411 1035.92 42.4684C1037.44 43.9961 1039.85 44.5114 1043.28 44.5114H1087.12C1091.36 44.5114 1094.46 45.5855 1096.5 47.6339C1098.54 49.6826 1099.61 52.7891 1099.61 57.0326C1099.61 60.468 1100.13 62.8816 1101.65 64.409C1103.17 65.9367 1105.58 66.452 1109.01 66.452C1113.25 66.452 1116.35 67.5299 1118.39 69.5804C1120.43 71.6313 1121.5 74.7381 1121.5 78.9732C1121.5 83.2073 1120.42 86.3142 1118.38 88.3655C1116.33 90.4166 1113.23 91.4943 1109.01 91.4943C1105.58 91.4943 1103.17 92.0097 1101.65 93.5374C1100.13 95.0648 1099.61 97.4784 1099.61 100.914C1099.61 105.165 1098.54 108.271 1096.49 110.318C1094.44 112.365 1091.35 113.435 1087.12 113.435H1043.28Z" stroke="#F1F1F1"/>
</svg>
