<?xml version="1.0" standalone="no"?>
<!DOCTYPE svg PUBLIC "-//W3C//DTD SVG 20010904//EN"
 "http://www.w3.org/TR/2001/REC-SVG-20010904/DTD/svg10.dtd">
<svg version="1.0" xmlns="http://www.w3.org/2000/svg"
 width="4429.000000pt" height="1304.000000pt" viewBox="0 0 4429.000000 1304.000000"
 preserveAspectRatio="xMidYMid meet">

<g transform="translate(0.000000,1304.000000) scale(0.100000,-0.100000)"
fill="#000000" stroke="none">
<path d="M0 6520 l0 -6520 22145 0 22145 0 0 6520 0 6520 -22145 0 -22145 0 0
-6520z m14298 4345 c60 -18 107 -61 123 -113 6 -20 14 -90 16 -154 l5 -118 62
0 c130 0 215 -49 237 -136 l12 -45 276 275 c185 183 287 277 306 283 61 17
140 9 178 -17 37 -26 2473 -2913 2524 -2991 15 -24 90 -118 166 -207 75 -90
145 -178 154 -195 22 -42 21 -122 -1 -169 -12 -24 -241 -245 -697 -668 -456
-425 -676 -637 -671 -645 15 -27 207 -284 212 -285 3 0 11 10 19 23 8 12 320
430 693 929 l680 908 -113 142 c-62 79 -175 220 -250 314 -123 155 -138 177
-144 222 -4 27 -2 67 4 89 8 30 128 186 456 597 247 308 459 565 477 576 64
39 154 34 211 -10 14 -11 115 -128 223 -260 109 -132 201 -240 204 -239 3 0
295 414 650 919 542 772 651 923 685 942 l40 23 1050 3 c748 2 1065 0 1102 -8
38 -8 62 -21 91 -50 48 -48 62 -103 62 -241 l0 -99 66 0 c97 0 148 -16 193
-61 21 -22 42 -51 47 -67 4 -15 10 -695 13 -1511 l6 -1484 889 902 c489 496
901 908 915 915 70 36 147 27 206 -25 51 -45 65 -104 65 -271 l0 -137 35 23
c103 71 236 20 271 -103 9 -31 18 -58 20 -60 1 -1 549 133 1216 299 1170 291
1216 301 1259 290 91 -25 146 -121 125 -220 -9 -38 -26 -61 -108 -146 -54 -55
-98 -103 -98 -106 0 -3 75 13 168 36 l167 42 5 970 c4 744 8 978 18 1006 7 20
26 51 43 68 63 62 28 61 1185 58 1038 -3 1049 -3 1089 -24 28 -14 334 -342
1058 -1135 560 -613 1043 -1143 1072 -1178 30 -35 57 -75 60 -90 3 -14 25 -48
48 -74 l42 -48 900 986 c959 1050 937 1028 1030 1028 81 0 109 -24 252 -212
72 -96 153 -197 180 -225 26 -28 644 -844 1373 -1813 l1325 -1763 5 2218 c3
1219 6 2218 8 2219 1 2 18 21 38 43 66 73 12 70 1169 70 1100 0 1094 0 1150
-48 19 -16 2094 -2288 2124 -2325 7 -9 19 -33 25 -52 8 -21 68 -96 150 -185
75 -83 146 -166 158 -186 30 -50 28 -130 -3 -183 -40 -66 -1229 -1439 -1268
-1464 l-36 -22 -787 -3 -788 -2 0 -1048 c0 -1159 2 -1125 -63 -1189 -61 -62
-73 -63 -749 -63 -675 0 -687 1 -749 60 -48 45 -59 89 -59 228 l0 112 -61 0
c-118 0 -200 35 -237 103 -15 28 -18 73 -22 370 l-5 338 -469 -526 c-258 -289
-483 -537 -500 -549 -17 -13 -52 -28 -78 -35 -34 -8 -588 -11 -2055 -11 -2139
0 -2075 -1 -2136 47 -35 28 -1316 1392 -1348 1437 -16 21 -29 48 -29 60 0 13
-50 75 -136 166 -178 190 -188 205 -188 285 0 68 20 109 84 170 17 16 30 32
30 37 0 4 -205 8 -455 8 l-455 0 0 -1062 c0 -745 -3 -1075 -11 -1103 -16 -57
-73 -108 -138 -123 -83 -19 -1247 -17 -1320 3 -110 29 -151 107 -151 288 l0
97 -57 0 c-126 0 -217 48 -246 130 -9 27 -13 451 -17 1856 l-5 1820 -985
-1004 c-542 -552 -998 -1014 -1015 -1027 -71 -53 -177 -46 -241 16 -46 45 -54
80 -54 252 l0 148 -27 -19 c-72 -50 -177 -41 -239 19 -42 41 -54 81 -54 187 0
45 -2 82 -5 82 -3 0 -516 -133 -1140 -295 -625 -162 -1149 -295 -1164 -295
-88 0 -164 57 -176 131 -15 91 -2 120 106 236 55 59 97 109 92 110 -4 1 -57
-10 -118 -25 l-110 -28 -6 -1275 c-3 -701 -9 -1287 -13 -1303 -13 -44 -75
-102 -123 -115 -30 -8 -352 -11 -1140 -9 l-1098 3 -40 23 c-27 16 -84 80 -178
202 -76 98 -152 194 -170 214 -18 19 -216 272 -442 560 -225 289 -414 525
-420 525 -5 0 -313 -379 -683 -842 -369 -463 -687 -852 -706 -865 -23 -16 -51
-24 -84 -25 -32 -1 -47 -6 -42 -12 101 -128 787 -1070 797 -1094 19 -45 19
-111 -1 -153 -9 -19 -236 -253 -504 -520 -480 -479 -488 -486 -534 -493 -61
-9 -113 1 -150 28 -16 12 -95 108 -175 214 -80 105 -150 194 -157 196 -6 3
-691 898 -1521 1989 l-1510 1985 -5 -881 c-4 -655 -9 -890 -18 -916 -6 -20
-27 -51 -45 -68 -63 -61 -75 -62 -749 -62 -675 0 -687 1 -749 60 -48 45 -59
89 -59 228 l0 112 -59 0 c-137 0 -226 48 -250 135 -8 29 -11 647 -11 2173 l0
2132 -453 0 -454 0 -6 -492 c-4 -271 -18 -1706 -32 -3188 -18 -1877 -29 -2713
-37 -2754 -26 -137 -162 -194 -277 -117 -34 22 -1319 1522 -1366 1595 -15 23
-17 23 -58 8 -37 -13 -157 -15 -972 -14 -1126 3 -1798 11 -1846 23 -49 12
-104 70 -118 124 -6 24 -11 94 -11 154 l0 111 -77 0 c-43 0 -94 5 -114 10 -49
14 -104 72 -118 123 -7 29 -16 882 -27 2782 l-17 2740 -58 62 -59 61 0 -2954
c0 -2154 -3 -2967 -11 -3000 -7 -28 -24 -57 -48 -79 -45 -44 -3127 -1852
-3199 -1877 -50 -17 -58 -18 -105 -4 -35 10 -64 28 -88 53 -20 21 -238 291
-485 600 -766 958 -775 969 -790 1020 -12 39 -14 557 -14 3390 0 2404 3 3356
11 3388 13 53 68 111 118 125 52 14 1434 13 1486 -1 50 -14 100 -64 114 -114
6 -22 11 -93 11 -157 l0 -118 78 0 c42 0 95 -5 117 -11 50 -14 100 -64 114
-114 8 -29 11 -817 11 -2762 0 -1498 3 -2723 8 -2722 4 0 142 78 307 172 l300
173 5 2769 c5 2548 6 2772 21 2800 10 17 26 38 37 48 50 46 57 46 807 47 442
0 724 -4 746 -10 39 -11 109 -74 109 -99 0 -9 8 -1 17 17 20 42 66 77 118 91
56 15 1879 15 1940 0 58 -15 109 -67 125 -127 l13 -47 11 44 c15 58 72 115
130 130 63 16 3974 16 4031 0 22 -6 51 -20 64 -30 24 -19 24 -19 51 6 55 53
65 54 741 54 532 1 633 -1 677 -14z"/>
<path d="M13000 7700 l0 -3000 625 0 625 0 2 1152 3 1153 1810 -2380 c996
-1309 1819 -2390 1830 -2402 l20 -23 461 460 461 459 -1209 1638 c-664 901
-1207 1641 -1205 1644 1 3 330 311 730 684 653 608 727 679 714 694 -8 9 -558
662 -1222 1451 -664 789 -1213 1441 -1221 1449 -11 12 -102 -74 -584 -550
-314 -310 -575 -565 -581 -567 -5 -2 -9 216 -9 567 l0 571 -625 0 -625 0 0
-3000z m2561 469 c217 -234 403 -435 413 -447 l19 -22 -869 0 -869 0 450 450
c247 248 453 449 456 448 3 -2 183 -194 400 -429z"/>
<path d="M15445 7910 l-29 -30 59 0 59 0 -29 30 c-16 17 -29 30 -30 30 -1 0
-14 -13 -30 -30z"/>
<path d="M28990 7700 l0 -3000 625 0 625 0 0 1145 0 1145 854 0 853 0 602 698
c330 383 600 702 599 707 -1 6 -472 526 -1047 1157 l-1046 1147 -1032 0 -1033
1 0 -3000z m2104 1345 l595 -660 -636 -3 c-350 -1 -638 0 -640 2 -3 2 -1 318
3 701 l7 697 38 -39 c21 -21 306 -335 633 -698z"/>
<path d="M30920 8740 l0 -180 162 0 161 0 -19 22 c-10 12 -83 93 -161 180
l-143 158 0 -180z"/>
<path d="M38660 7700 l0 -3000 625 0 625 0 0 1145 0 1145 857 2 857 3 603 699
602 699 -52 57 c-29 32 -502 551 -1052 1154 l-1000 1096 -1032 0 -1033 0 0
-3000z m2070 1385 c332 -368 610 -678 618 -687 14 -17 -16 -18 -627 -18 l-642
0 6 528 c7 701 14 878 30 861 6 -8 283 -315 615 -684z"/>
<path d="M40590 8742 l0 -182 160 0 c88 0 160 2 160 5 0 4 -196 224 -307 345
-11 12 -13 -15 -13 -168z"/>
<path d="M6787 10448 l232 -233 16 -2815 c9 -1548 18 -2816 19 -2817 1 -2 608
-6 1349 -9 l1347 -7 0 636 0 637 -670 0 -670 0 0 2420 0 2420 -927 0 -928 0
232 -232z"/>
<path d="M8780 10105 l0 -575 620 0 620 0 0 -2517 1 -2518 655 -770 c360 -423
658 -770 662 -770 5 0 66 5511 71 6433 l1 142 655 0 655 0 0 575 0 575 -1970
0 -1970 0 0 -575z"/>
<path d="M20380 9680 c-386 -550 -706 -1002 -709 -1004 -3 -2 -127 144 -276
325 -148 181 -272 328 -275 328 -7 0 -850 -1057 -856 -1072 -2 -7 122 -169
276 -360 l280 -349 -22 -31 c-13 -18 -340 -455 -727 -971 -645 -862 -702 -942
-691 -960 7 -12 200 -268 428 -569 333 -438 418 -545 428 -535 7 7 343 426
748 931 l735 918 98 -124 c54 -68 346 -439 648 -825 l550 -702 1068 0 1067 0
0 3000 0 3000 -1033 0 -1033 0 -704 -1000z m1388 -2989 l-3 -828 -604 817
c-332 450 -605 820 -605 823 -1 3 271 382 604 841 l605 835 3 -830 c1 -456 1
-1202 0 -1658z"/>
<path d="M21342 7447 c-134 -185 -244 -337 -245 -339 -1 -2 108 -153 243 -335
l245 -332 3 334 c1 184 1 486 0 672 l-3 336 -243 -336z"/>
<path d="M2160 7329 l0 -3341 461 -577 c254 -317 464 -575 468 -574 3 1 708
413 1566 916 l1560 915 3 3001 2 3001 -690 0 -690 0 0 -2793 0 -2793 -643
-367 c-353 -202 -646 -367 -650 -367 -4 0 -7 1422 -7 3160 l0 3160 -690 0
-690 0 0 -3341z"/>
<path d="M6400 10517 l0 -67 62 0 62 0 -59 62 c-33 34 -61 64 -62 67 -2 2 -3
-26 -3 -62z"/>
<path d="M33549 8208 c-987 -1079 -1804 -1974 -1817 -1989 l-22 -27 657 -701
658 -701 2030 1 2030 0 615 690 c338 380 619 696 624 702 5 9 -478 659 -1484
1997 -821 1092 -1493 1986 -1495 1988 -1 1 -809 -881 -1796 -1960z m2481
-1203 l810 -1040 -871 -3 c-479 -1 -1260 -1 -1736 0 l-866 3 918 1043 c505
573 922 1041 927 1040 4 -2 373 -471 818 -1043z"/>
<path d="M34977 6757 l-538 -612 511 -3 c282 -1 739 -1 1017 0 l505 3 -467
600 c-257 330 -472 605 -478 612 -9 9 -140 -134 -550 -600z"/>
<path d="M8911 7578 l-1 -1558 418 0 c331 0 429 -3 465 -14 l47 -14 0 1479 0
1479 -371 0 c-241 0 -386 4 -415 11 -58 15 -115 72 -130 130 -9 34 -12 -307
-13 -1513z"/>
<path d="M24554 7980 c-551 -558 -998 -1016 -995 -1018 4 -1 630 160 1393 358
763 198 1391 360 1397 360 7 0 12 -135 13 -426 l3 -427 1020 1039 c1070 1090
1117 1138 1094 1130 -8 -3 -660 -165 -1449 -361 -789 -196 -1443 -359 -1452
-361 -17 -5 -18 18 -20 358 l-3 363 -1001 -1015z"/>
</g>
</svg>
