<?xml version="1.0" standalone="no"?>
<!DOCTYPE svg PUBLIC "-//W3C//DTD SVG 20010904//EN"
 "http://www.w3.org/TR/2001/REC-SVG-20010904/DTD/svg10.dtd">
<svg version="1.0" xmlns="http://www.w3.org/2000/svg"
 width="4006.000000pt" height="1639.000000pt" viewBox="0 0 4006.000000 1639.000000"
 preserveAspectRatio="xMidYMid meet">

<g transform="translate(0.000000,1639.000000) scale(0.100000,-0.100000)"
fill="#000000" stroke="none">
<path d="M0 8195 l0 -8195 20030 0 20030 0 0 8195 0 8195 -20030 0 -20030 0 0
-8195z m13143 6111 c18 -7 55 -39 82 -70 27 -32 61 -64 76 -72 36 -18 133 -18
234 1 65 13 93 13 159 4 112 -17 223 -6 426 41 198 46 365 61 460 41 45 -9 59
-18 76 -44 29 -44 108 -85 201 -103 63 -13 121 -15 311 -10 223 7 234 6 280
-15 36 -16 65 -21 122 -20 88 2 166 -19 203 -53 21 -19 27 -35 27 -66 0 -61
-23 -108 -57 -115 -59 -12 -78 -21 -81 -38 -7 -35 17 -47 94 -47 88 0 118 -12
139 -55 26 -56 17 -212 -14 -222 -9 -3 -117 -45 -241 -93 -364 -141 -462 -169
-695 -194 -139 -16 -309 -59 -460 -119 -57 -22 -60 -25 -67 -64 -4 -23 -14
-55 -22 -71 -16 -30 -61 -72 -78 -72 -4 0 -26 -12 -48 -26 -28 -19 -69 -31
-156 -45 -186 -32 -198 -43 -220 -212 -9 -68 -23 -129 -36 -157 -20 -40 -22
-58 -19 -180 3 -140 -7 -205 -40 -272 -12 -24 -19 -59 -19 -96 0 -32 -5 -84
-11 -114 -10 -47 -9 -63 6 -100 14 -38 15 -54 5 -109 -25 -143 -66 -230 -127
-271 -28 -18 -43 -37 -51 -66 -25 -83 -16 -99 73 -117 139 -30 161 -83 150
-378 l-7 -199 -39 -82 c-93 -199 -122 -373 -124 -741 -2 -230 -4 -275 -18
-302 -26 -50 -21 -141 14 -266 18 -63 28 -119 25 -133 -4 -13 -31 -42 -61 -64
-82 -61 -86 -69 -94 -227 -6 -112 -12 -146 -29 -180 -12 -23 -26 -44 -32 -48
-15 -9 -12 -131 5 -226 19 -101 31 -140 58 -198 l22 -43 -23 -18 c-12 -10 -40
-21 -62 -24 -22 -3 -59 -9 -82 -12 -50 -8 -108 -58 -89 -77 21 -21 11 -37 -59
-83 -79 -52 -95 -76 -135 -202 -29 -92 -63 -131 -127 -143 -117 -22 -166 71
-244 465 -12 62 -23 94 -37 105 -107 85 -136 135 -195 326 -36 116 -39 136
-32 185 16 105 12 227 -9 268 -23 45 -15 69 49 159 22 31 40 66 40 78 0 15
-22 42 -65 80 -36 31 -65 65 -65 74 0 10 9 30 20 44 16 20 20 40 20 100 0 101
-11 152 -76 363 l-56 182 26 72 c39 108 34 160 -15 160 -15 0 -41 11 -56 24
-28 24 -28 26 -28 136 0 120 -1 123 -68 165 -13 8 -16 35 -18 140 -5 219 11
595 28 645 18 56 12 93 -35 195 -36 80 -36 81 -43 260 -4 99 -19 284 -33 410
-47 412 -40 376 -80 413 -26 23 -36 41 -36 62 0 42 -23 94 -51 114 -30 20
-149 21 -234 2 -33 -8 -103 -20 -156 -26 -143 -18 -213 -1 -365 91 -45 27
-113 64 -150 82 -64 30 -77 32 -175 32 -74 1 -112 5 -123 14 -9 8 -28 51 -42
97 -33 108 -56 129 -134 119 -115 -13 -113 -14 -134 29 -27 56 -11 117 60 223
60 89 87 151 78 180 -16 49 -32 67 -80 88 -72 32 -132 123 -113 172 5 13 13
72 19 132 11 118 29 183 61 217 63 67 348 151 581 170 133 12 349 -26 476 -82
57 -25 58 -25 175 -13 76 8 204 10 370 7 319 -7 532 4 657 33 52 12 124 25
160 29 36 5 99 20 140 34 86 29 118 31 163 12z m14474 -66 c125 -28 253 -55
283 -62 30 -6 75 -24 100 -39 79 -49 199 -99 425 -175 169 -58 277 -103 465
-194 135 -65 261 -124 280 -131 30 -10 41 -24 73 -90 49 -102 118 -164 269
-244 113 -60 113 -60 146 -125 36 -73 40 -115 17 -200 -20 -75 -19 -118 5
-163 28 -53 25 -81 -14 -125 l-35 -38 14 -94 c16 -108 39 -140 99 -140 21 0
40 -8 55 -24 20 -21 21 -28 11 -64 -6 -25 -9 -127 -8 -269 3 -218 2 -231 -20
-284 -12 -32 -41 -78 -63 -103 -37 -42 -40 -50 -34 -83 4 -21 16 -55 27 -77
30 -59 20 -180 -37 -451 -25 -121 -48 -254 -52 -295 -6 -69 -9 -79 -48 -125
-66 -79 -116 -158 -203 -322 -44 -84 -94 -171 -110 -195 -77 -112 -186 -206
-327 -283 -147 -81 -309 -198 -467 -339 -53 -47 -102 -86 -109 -86 -6 0 -93
-28 -193 -62 -155 -52 -192 -61 -256 -62 -92 -1 -164 28 -238 98 -48 45 -77
55 -117 40 -10 -4 -30 -35 -45 -69 -52 -115 -89 -125 -284 -74 -65 16 -132 29
-150 27 l-31 -3 -17 -120 c-45 -328 -72 -441 -129 -543 -23 -41 -33 -75 -40
-145 -14 -121 -47 -222 -133 -402 -68 -143 -71 -153 -70 -219 0 -45 5 -71 13
-74 36 -12 72 -58 87 -110 26 -88 15 -336 -25 -587 -18 -110 -35 -214 -37
-231 -2 -18 -27 -61 -54 -97 -56 -74 -81 -85 -155 -66 -71 18 -110 64 -141
168 -52 176 -83 229 -151 258 -37 15 -51 39 -84 141 -35 111 -63 130 -142 97
-42 -17 -90 -19 -117 -5 -37 20 -69 133 -101 353 -11 78 -24 156 -29 174 -5
22 -4 47 6 79 24 80 18 189 -21 364 -19 87 -35 183 -36 212 0 50 -2 54 -42 83
-59 43 -73 76 -57 134 23 88 24 120 4 143 -27 29 -28 226 -2 277 15 28 16 40
6 78 -14 57 -6 217 22 417 26 195 27 358 0 453 -11 39 -47 131 -81 204 -86
187 -89 209 -56 350 15 63 27 142 27 176 0 45 6 74 23 105 20 39 22 55 20 168
-2 69 -7 126 -12 128 -30 10 -43 33 -52 96 -7 50 -6 78 3 102 9 25 9 53 1 115
-7 54 -8 93 -1 116 5 20 7 45 3 57 -3 11 -19 71 -35 133 -16 61 -43 137 -59
168 -17 32 -31 64 -31 73 0 8 -14 59 -32 114 -29 92 -30 102 -18 146 16 61 16
81 -4 239 -18 144 -25 170 -63 225 -24 36 -25 42 -21 145 3 85 8 117 25 149
22 40 85 104 104 104 14 0 43 66 36 83 -3 8 -20 17 -39 21 -98 18 -128 70
-139 246 -5 69 -15 145 -24 169 -8 24 -15 49 -15 56 0 31 52 73 121 99 70 26
74 26 178 15 199 -22 374 1 548 71 58 24 105 34 183 41 129 12 168 30 195 86
29 62 68 72 188 49 l92 -17 160 42 c141 37 176 42 291 45 72 2 141 8 155 13
47 19 119 11 346 -39z m8689 0 c27 -5 152 -32 279 -60 217 -47 236 -54 360
-114 74 -37 220 -95 340 -136 151 -51 273 -101 435 -179 124 -60 239 -114 256
-120 24 -9 36 -25 54 -67 12 -31 46 -81 75 -112 49 -53 173 -136 240 -162 44
-17 62 -37 90 -98 30 -64 31 -102 8 -200 -16 -71 -16 -73 5 -125 29 -69 28
-88 -9 -123 -29 -28 -30 -31 -24 -94 14 -134 29 -160 97 -160 53 -1 71 -34 59
-110 -6 -34 -7 -137 -4 -233 5 -159 4 -180 -15 -244 -15 -48 -34 -84 -62 -115
-35 -40 -39 -50 -34 -79 4 -19 16 -52 27 -74 28 -55 20 -147 -36 -430 -26
-126 -49 -256 -52 -288 -6 -49 -13 -65 -47 -105 -59 -67 -104 -139 -187 -299
-125 -241 -210 -332 -427 -456 -139 -79 -294 -193 -415 -304 -79 -72 -94 -81
-160 -100 -41 -11 -121 -38 -179 -58 -191 -69 -288 -59 -400 41 -89 79 -125
74 -168 -27 -42 -97 -91 -108 -279 -59 -63 17 -124 30 -134 30 -22 0 -22 3
-54 -225 -28 -206 -52 -300 -100 -400 -23 -49 -37 -96 -44 -156 -14 -109 -45
-200 -123 -363 -51 -107 -63 -141 -66 -193 -4 -62 -4 -62 37 -100 31 -27 46
-51 58 -92 24 -84 13 -317 -26 -545 -17 -99 -31 -193 -31 -209 0 -29 -36 -88
-83 -139 -52 -55 -172 -27 -215 51 -11 20 -31 75 -45 122 -14 47 -32 100 -41
116 -17 34 -66 78 -96 88 -24 8 -51 58 -73 135 -25 83 -42 103 -86 97 -20 -3
-54 -11 -76 -18 -87 -26 -127 34 -159 241 -10 58 -24 148 -33 201 -12 76 -13
104 -4 129 20 59 13 193 -18 334 -16 72 -32 161 -36 198 -7 63 -9 68 -45 92
-51 34 -66 78 -46 137 21 58 20 98 -1 122 -25 27 -25 208 0 254 14 27 15 40 6
90 -12 66 -7 159 22 383 15 108 20 192 17 275 -5 135 -15 171 -109 375 -48
103 -53 122 -53 180 1 36 11 103 23 149 12 47 21 107 20 135 -2 37 4 63 21 96
21 41 22 54 18 156 -5 107 -7 114 -32 136 -28 24 -30 43 -25 218 1 25 1 72 0
105 -1 33 0 74 0 90 3 44 -54 246 -85 300 -14 26 -26 55 -26 65 0 9 -13 56
-30 103 -34 98 -37 132 -15 183 11 28 13 46 5 77 -5 23 -14 86 -20 140 -11
102 -25 147 -61 198 -19 28 -21 40 -17 123 6 107 29 170 77 207 68 51 82 69
79 96 -2 21 -11 28 -46 39 -90 26 -111 68 -121 243 -4 70 -13 136 -19 148 -32
60 4 110 104 143 59 20 72 21 186 11 189 -16 317 1 481 65 67 25 117 37 189
44 118 11 154 28 177 81 23 56 64 66 175 43 l83 -18 94 27 c157 44 239 58 345
58 61 1 118 6 140 14 48 17 50 17 110 5z m-27531 -225 c22 -13 55 -25 74 -25
29 0 47 -12 112 -75 42 -41 96 -84 120 -95 63 -28 146 -25 311 11 77 17 142
28 146 25 3 -3 25 10 48 29 44 36 101 65 129 65 8 0 34 -17 58 -38 23 -21 63
-51 89 -65 84 -49 120 -134 143 -342 13 -115 17 -132 37 -147 67 -50 74 -69
30 -92 -27 -14 -29 -20 -35 -98 -8 -103 -25 -193 -82 -428 -24 -102 -52 -228
-61 -280 -23 -125 -23 -342 0 -530 28 -226 25 -339 -12 -505 -77 -348 -118
-725 -146 -1348 l-5 -108 39 -15 c52 -21 100 -76 100 -115 0 -16 -23 -92 -51
-167 -128 -346 -156 -443 -169 -592 -7 -81 -13 -109 -30 -133 -22 -29 -22 -30
-6 -107 22 -99 10 -157 -36 -184 -52 -31 -68 -70 -68 -168 l0 -87 37 16 c56
23 121 12 265 -47 123 -49 132 -51 265 -60 77 -5 172 -14 213 -20 56 -8 91 -8
137 1 49 10 77 10 135 0 89 -16 257 -71 357 -117 86 -39 100 -40 201 -14 124
32 208 23 254 -28 10 -12 23 -19 28 -16 5 3 22 1 37 -6 26 -10 27 -14 23 -65
-6 -73 35 -177 94 -241 41 -44 74 -117 74 -166 0 -32 -40 -46 -137 -49 -51 -2
-95 0 -99 4 -15 14 -50 6 -101 -23 -29 -17 -53 -35 -53 -41 0 -5 9 -27 19 -48
19 -36 39 -49 97 -66 13 -3 29 -24 42 -53 11 -26 50 -83 86 -127 71 -86 90
-135 63 -162 -34 -34 -122 -43 -444 -43 -235 -1 -332 -5 -390 -16 -127 -25
-198 -2 -229 72 -19 45 -84 60 -208 48 -50 -5 -228 -9 -396 -9 l-305 0 -60
-35 -60 -35 -310 -1 c-271 -1 -327 -4 -449 -24 -195 -32 -224 -20 -332 125
-24 33 -57 69 -74 78 -49 29 -61 88 -70 352 -6 146 -16 279 -30 365 -57 364
-62 459 -30 533 30 69 35 147 15 292 -16 123 -16 237 0 297 5 20 -3 48 -33
115 -50 110 -58 154 -38 224 65 230 62 207 43 260 -14 37 -15 54 -7 69 13 24
6 53 -22 93 -18 25 -19 33 -9 74 7 25 25 72 42 104 53 106 62 174 60 469 -1
181 -7 330 -21 470 -11 113 -20 236 -20 273 0 50 -7 83 -25 127 -14 33 -25 74
-25 92 -1 18 -9 58 -20 88 -16 45 -19 83 -20 215 0 115 -4 176 -16 215 -104
363 -117 468 -118 935 -1 348 -1 350 22 398 13 26 21 54 18 63 -8 22 -9 275 0
297 8 22 66 52 130 68 96 24 143 60 144 111 0 42 37 62 100 53 43 -6 50 -5 50
10 0 29 63 82 111 95 24 6 71 19 104 29 82 26 103 25 150 -4z m-1506 -26 c37
-13 36 -9 50 -194 18 -224 12 -296 -32 -381 -16 -30 -15 -31 40 -128 42 -74
57 -110 61 -149 3 -35 13 -61 29 -81 68 -82 93 -180 93 -373 0 -138 1 -144 30
-201 38 -75 56 -156 70 -312 6 -69 18 -154 27 -190 9 -39 15 -102 13 -157 -1
-101 13 -146 54 -164 l22 -10 -19 -72 c-14 -54 -20 -120 -23 -267 -5 -220 -12
-266 -61 -435 -45 -155 -43 -201 18 -340 42 -97 44 -103 47 -222 3 -116 -4
-209 -46 -581 l-17 -152 -40 -20 c-64 -32 -70 -47 -70 -200 0 -111 -3 -141
-18 -168 -17 -31 -17 -36 -1 -77 29 -77 -3 -161 -112 -295 -111 -136 -113
-140 -98 -175 9 -20 13 -77 14 -166 0 -127 2 -139 26 -185 25 -46 25 -52 14
-104 -20 -90 -87 -283 -167 -480 -41 -102 -95 -238 -119 -303 -36 -99 -55
-134 -116 -214 -169 -221 -270 -320 -397 -386 -90 -48 -159 -67 -270 -74 l-93
-6 -33 -45 c-18 -25 -43 -75 -55 -111 -32 -91 -53 -131 -88 -164 -71 -68 -417
-161 -783 -212 -135 -18 -158 -15 -308 45 -137 54 -177 58 -275 26 -43 -14
-88 -26 -100 -26 -31 0 -82 28 -148 82 -31 25 -67 49 -80 53 -13 4 -57 24 -98
45 -88 45 -176 78 -520 195 -373 128 -536 202 -623 284 -33 30 -57 72 -57 97
0 10 -11 29 -24 43 -42 44 -42 72 -2 120 30 36 36 51 36 91 0 39 -6 55 -35 93
-34 45 -62 67 -84 67 -5 0 -15 -25 -21 -56 -14 -67 -38 -94 -82 -94 -43 1 -69
16 -113 68 -21 23 -50 49 -65 57 -43 22 -68 102 -86 269 -23 218 -39 261 -138
367 -85 90 -95 115 -70 187 25 75 22 161 -11 282 -61 228 -65 295 -24 406 19
50 21 70 16 163 -4 58 -13 153 -22 211 -18 132 -9 195 46 300 21 42 39 80 39
84 0 13 -59 106 -86 136 -140 159 -237 870 -189 1384 26 271 12 510 -39 706
l-14 54 29 33 c39 46 44 73 29 167 -8 45 -14 90 -15 101 0 11 -11 46 -23 78
-29 75 -28 92 9 217 29 99 30 111 25 220 -4 63 -11 196 -16 295 -10 193 -23
256 -70 341 -24 44 -27 54 -17 75 19 38 73 67 155 84 42 9 106 22 142 30 57
13 72 13 119 0 106 -28 240 -38 432 -33 l189 6 30 -34 c21 -25 30 -45 30 -70
0 -40 18 -52 59 -38 19 6 36 29 61 78 19 38 47 78 62 89 25 19 28 19 61 3 20
-9 60 -16 94 -16 52 0 67 5 142 50 87 51 147 67 203 56 25 -5 37 0 64 24 21
18 63 38 107 51 39 11 84 25 99 31 30 11 110 -2 157 -27 48 -24 97 -91 117
-158 32 -108 22 -366 -22 -579 -4 -20 -18 -33 -50 -49 -55 -26 -62 -40 -40
-85 20 -43 20 -78 0 -136 -8 -26 -14 -64 -12 -85 l3 -38 73 -6 c86 -8 117 -26
143 -82 23 -53 25 -143 3 -296 -10 -76 -13 -141 -9 -199 4 -48 6 -160 5 -249
-1 -144 1 -167 20 -211 l21 -48 -20 -48 c-12 -26 -39 -115 -62 -199 -45 -167
-76 -252 -114 -309 -25 -38 -25 -39 -28 -315 -1 -208 1 -291 12 -331 11 -43
11 -64 0 -116 -8 -44 -9 -78 -3 -107 8 -37 16 -49 59 -76 33 -22 52 -42 56
-60 10 -44 10 -234 -1 -388 -19 -287 -29 -567 -23 -660 l6 -95 36 -10 c54 -15
98 -45 116 -81 10 -18 22 -86 30 -162 13 -124 18 -143 88 -327 69 -181 76
-195 103 -202 16 -4 128 -7 249 -7 183 2 227 -1 264 -15 l45 -16 49 52 c27 29
81 98 120 153 125 176 185 228 305 267 70 23 71 24 125 103 108 160 127 229
87 323 l-22 52 84 113 85 113 -39 43 c-55 63 -72 129 -59 225 6 41 15 96 21
123 6 26 15 98 20 159 7 83 20 143 50 240 50 160 62 237 49 312 -14 76 -15 65
21 172 28 80 34 113 38 210 5 127 -8 200 -53 299 -14 29 -25 70 -25 90 0 20
-14 100 -30 179 -16 79 -32 171 -36 206 -9 83 10 189 47 260 17 35 29 75 29
97 0 51 -36 327 -53 410 -13 60 -12 69 4 101 68 134 63 393 -10 487 -17 22
-17 28 -5 58 8 19 21 71 30 116 27 142 61 188 151 203 39 6 42 9 62 64 25 69
75 146 112 173 17 12 54 22 104 28 42 4 84 14 92 20 33 28 45 73 52 197 6 98
13 136 29 167 62 120 210 180 453 184 47 0 100 -4 118 -10z m14285 -775 c10
-9 16 -33 16 -57 0 -82 40 -190 149 -402 60 -115 116 -231 126 -257 10 -26 28
-54 42 -63 60 -40 169 -224 219 -372 29 -86 33 -172 15 -313 -29 -212 8 -483
100 -735 15 -42 24 -98 30 -185 6 -107 16 -157 67 -345 74 -272 90 -342 98
-436 7 -65 12 -79 45 -121 45 -57 71 -134 99 -291 16 -92 31 -142 69 -225 101
-222 136 -373 128 -547 -4 -96 -2 -115 15 -149 25 -49 48 -156 48 -228 l0 -56
-51 -37 c-42 -30 -50 -40 -45 -58 18 -63 57 -323 71 -477 l17 -175 72 -70 c40
-40 83 -92 96 -120 23 -47 25 -62 28 -236 4 -211 -4 -247 -59 -277 -98 -53
-144 -94 -237 -207 -128 -157 -198 -200 -294 -181 -27 5 -38 16 -64 64 -42 75
-48 110 -28 147 14 28 14 31 -6 47 -27 22 -48 22 -121 2 -55 -16 -60 -15 -91
3 -48 28 -77 94 -105 245 -13 73 -33 161 -44 196 -10 34 -19 80 -19 101 0 34
-4 40 -30 51 -49 20 -87 76 -127 188 -22 59 -51 120 -69 141 -17 20 -40 63
-53 97 l-22 61 19 59 c11 32 23 98 27 147 l7 87 -119 0 c-127 0 -200 -14 -289
-54 -49 -22 -57 -23 -129 -13 -65 9 -84 9 -121 -5 -37 -13 -45 -13 -55 -2 -18
22 -51 16 -104 -17 -96 -61 -193 -74 -292 -39 -70 24 -135 26 -154 4 -10 -12
-10 -30 -1 -87 7 -48 8 -91 2 -127 -6 -30 -13 -91 -16 -135 -7 -78 -8 -80 -67
-152 -34 -43 -76 -82 -98 -94 -56 -28 -63 -54 -48 -164 19 -143 -6 -250 -83
-347 -21 -27 -38 -38 -56 -38 -15 0 -83 -14 -152 -30 -69 -17 -152 -33 -185
-37 -40 -4 -70 -14 -91 -29 -60 -46 -131 -64 -189 -48 -11 3 -35 32 -53 65
-32 57 -33 61 -18 85 12 17 25 24 50 24 36 0 62 21 53 44 -3 8 -32 35 -64 60
-81 64 -102 62 -188 -14 -39 -34 -77 -60 -90 -60 -56 0 -80 91 -73 275 4 101
9 130 31 180 14 33 28 75 31 93 3 18 20 62 37 98 l32 65 -13 122 c-12 117 -12
124 8 172 16 36 21 67 20 110 -2 33 7 121 19 196 13 75 26 189 29 255 l7 119
38 45 c66 79 118 213 119 305 0 17 13 55 30 86 37 71 58 147 115 425 46 228
70 318 105 398 20 43 23 46 60 46 48 0 51 13 16 73 -33 56 -35 129 -6 232 18
69 23 119 30 355 11 343 28 438 100 546 15 23 31 61 35 85 4 24 18 94 32 154
14 61 29 154 34 208 6 72 19 129 49 215 29 84 45 151 55 237 8 66 20 152 25
191 8 52 8 89 0 137 -9 48 -9 84 -1 137 23 145 76 201 228 236 95 22 125 37
159 77 16 19 39 38 51 41 12 4 51 29 87 55 76 56 119 68 171 47 42 -18 55 -47
55 -122 l0 -54 53 0 c39 0 61 6 89 25 41 27 121 127 133 164 11 37 74 100 125
126 93 47 273 70 304 39z m-5332 -318 c35 -8 117 -19 184 -26 66 -6 145 -18
175 -27 34 -11 82 -16 129 -14 42 1 113 -5 157 -12 54 -10 97 -12 125 -6 24 4
46 8 51 9 4 0 7 6 7 14 0 8 7 22 16 31 53 52 540 -67 795 -195 112 -57 480
-299 523 -344 16 -17 59 -77 97 -132 77 -115 131 -166 192 -183 l42 -12 42
-117 c23 -64 65 -182 93 -262 76 -215 99 -307 93 -377 -3 -32 -1 -74 5 -94 11
-43 -2 -256 -23 -364 -8 -38 -18 -92 -24 -120 -5 -27 -17 -86 -27 -130 -22
-100 -18 -116 48 -207 10 -13 7 -41 -15 -140 -15 -68 -27 -137 -27 -154 0 -24
-9 -38 -38 -61 -65 -52 -92 -116 -137 -326 l-17 -78 -104 -50 c-121 -58 -136
-75 -201 -233 -28 -67 -50 -102 -83 -135 -83 -80 -184 -160 -297 -233 -61 -40
-114 -82 -117 -92 -8 -31 20 -72 84 -121 82 -63 95 -91 66 -145 -12 -23 -10
-31 22 -90 26 -48 51 -77 96 -110 58 -44 97 -99 97 -137 0 -10 -3 -55 -7 -99
-8 -98 0 -126 71 -254 40 -71 73 -154 130 -333 l77 -237 71 -78 c83 -91 124
-153 133 -199 4 -19 15 -40 26 -46 28 -17 55 -74 63 -132 5 -35 31 -95 88
-197 44 -82 84 -148 89 -148 5 0 45 -36 89 -79 44 -43 96 -87 117 -97 35 -16
40 -16 102 -1 84 22 111 21 138 -3 44 -41 41 -119 -6 -162 -15 -14 -54 -41
-87 -60 -51 -31 -71 -36 -139 -40 l-79 -5 -63 -71 c-106 -117 -179 -138 -272
-78 -29 18 -74 41 -100 51 -26 10 -63 29 -82 42 -19 12 -43 23 -53 23 -58 0
-196 102 -212 157 -15 50 -47 78 -123 107 -77 30 -103 49 -129 92 -10 16 -32
52 -50 79 -18 26 -44 79 -58 116 l-26 68 -31 -34 c-40 -46 -92 -62 -138 -42
-44 18 -130 94 -130 113 0 52 -123 189 -192 214 -31 12 -41 23 -66 79 -17 36
-35 83 -42 104 -7 22 -38 66 -71 101 -66 71 -74 88 -84 172 -4 35 -16 74 -30
95 -20 31 -30 37 -69 41 -58 7 -76 22 -76 65 0 56 -23 86 -99 128 -39 21 -77
45 -85 54 -21 24 -88 229 -95 290 l-6 54 -63 35 c-77 42 -165 53 -225 29 -33
-14 -42 -14 -78 -2 -23 8 -47 15 -53 15 -13 0 -70 -203 -91 -326 -8 -44 -14
-141 -14 -216 1 -130 -11 -211 -31 -223 -19 -12 -10 -104 22 -205 28 -94 30
-108 19 -148 -6 -25 -20 -57 -31 -72 -11 -15 -27 -60 -35 -100 -21 -99 -45
-149 -94 -198 -46 -46 -49 -60 -26 -162 24 -108 21 -122 -35 -189 -97 -117
-116 -116 -239 10 -50 50 -98 90 -114 94 -43 11 -112 0 -145 -24 -17 -11 -44
-21 -61 -21 -27 0 -31 4 -41 43 -17 68 -40 128 -77 199 -35 67 -35 67 -37 215
-2 178 -21 241 -86 293 -21 17 -49 47 -61 67 -21 34 -22 40 -10 111 14 96 33
126 71 119 l27 -6 6 69 c8 94 -4 166 -52 313 -49 150 -52 215 -20 383 28 146
28 271 1 407 -12 59 -22 121 -22 138 0 16 -7 40 -15 52 -8 12 -21 52 -30 89
-8 37 -17 73 -20 80 -3 7 13 37 35 66 55 74 58 99 19 211 -29 84 -31 101 -26
175 3 44 16 123 30 174 l24 92 -57 298 c-32 163 -66 315 -75 337 -16 37 -17
55 -4 235 16 236 16 238 -9 325 -27 91 -28 237 -3 450 15 132 21 326 13 431
-1 12 -24 56 -52 97 -27 42 -57 91 -66 109 -15 28 -33 122 -35 180 0 9 23 45
51 80 l51 63 -3 93 c-3 106 1 113 81 135 54 15 76 43 126 163 l37 92 88 4 c95
4 84 -1 238 108 31 22 45 25 121 24 57 0 122 -9 191 -26 58 -14 127 -28 154
-32 48 -6 49 -5 89 39 22 25 44 45 48 45 4 0 36 -6 71 -14z m16268 -301 c175
-55 316 -137 398 -230 23 -26 54 -79 72 -124 27 -68 63 -121 82 -121 3 0 29
16 58 35 62 41 93 44 170 12 59 -25 340 -202 428 -270 114 -87 152 -152 257
-435 37 -101 78 -196 90 -210 53 -64 76 -130 110 -314 14 -79 37 -167 51 -197
13 -29 24 -63 24 -75 0 -12 11 -65 25 -117 30 -115 30 -136 4 -330 -25 -184
-22 -274 17 -469 24 -117 27 -158 27 -300 -1 -91 -6 -235 -11 -320 -9 -169 -8
-163 -100 -330 -22 -41 -44 -95 -48 -120 -4 -24 -22 -76 -40 -115 -45 -97 -68
-196 -103 -440 -17 -115 -40 -244 -51 -285 -30 -106 -92 -228 -153 -296 -63
-71 -81 -95 -349 -468 -224 -311 -246 -336 -417 -453 -120 -83 -205 -147 -254
-190 -20 -18 -48 -33 -61 -33 -12 0 -106 -21 -207 -46 -289 -73 -418 -71 -541
8 -27 16 -59 43 -73 60 -43 50 -113 67 -344 83 -260 18 -315 33 -395 108 -24
23 -49 36 -75 40 -22 3 -61 16 -87 28 -70 36 -185 147 -222 218 -32 59 -32 60
-30 193 3 155 -4 178 -78 229 l-46 31 7 48 7 48 -54 35 c-36 25 -67 57 -97
104 -25 37 -58 84 -74 103 -48 55 -85 147 -107 265 -52 281 -63 323 -95 390
-38 79 -50 144 -36 193 9 30 6 39 -30 95 -153 236 -223 564 -180 842 15 98 14
248 -4 363 -18 125 -20 186 -10 299 7 83 6 98 -15 153 -20 52 -22 73 -18 153
7 111 27 170 105 299 85 141 101 184 128 351 41 257 60 287 172 287 59 0 68 3
92 29 15 16 40 60 56 97 40 98 62 123 183 210 208 151 216 161 227 255 14 127
17 140 41 169 18 21 47 36 107 54 82 25 116 41 407 194 226 117 356 155 469
134 50 -9 58 -8 85 13 129 96 319 119 506 60z m-7852 -1603 c15 -15 35 -43 44
-61 12 -21 24 -31 35 -29 17 3 56 -69 99 -186 15 -41 18 -118 5 -150 -4 -10 1
-62 10 -115 28 -155 33 -241 16 -281 -22 -51 -155 -273 -170 -282 -17 -11
-174 -9 -226 3 -24 5 -56 19 -72 29 -15 11 -40 20 -56 20 -36 -1 -153 -32
-245 -66 -53 -19 -94 -27 -148 -28 -67 -1 -79 2 -110 25 -41 31 -54 36 -140
48 -63 8 -68 7 -134 -26 -88 -44 -192 -67 -269 -58 -61 7 -67 11 -96 60 -16
27 -21 29 -71 27 -73 -4 -112 -17 -138 -47 -12 -14 -31 -25 -42 -25 -11 0 -52
28 -90 63 l-71 62 6 150 c3 83 10 179 16 215 14 82 13 115 -7 214 -22 110 -16
182 21 230 52 68 77 74 335 81 160 5 202 2 305 -16 160 -28 276 -28 339 -1 26
12 61 32 79 44 30 22 43 23 267 29 253 6 282 12 390 69 69 37 85 37 118 2z
m4350 -1593 c21 -12 48 -32 62 -45 14 -13 48 -26 80 -32 l55 -10 -45 1 c-36 0
-55 -7 -90 -32 -45 -33 -153 -71 -199 -71 -33 0 -149 39 -179 60 -20 14 -18
18 66 89 l87 73 63 -6 c39 -3 78 -14 100 -27z m645 -116 c-13 -2 -35 -2 -50 0
-16 2 -5 4 22 4 28 0 40 -2 28 -4z m-1843 -453 c19 -10 46 -25 60 -31 36 -18
70 -50 70 -66 0 -35 -148 -63 -230 -43 -91 22 -117 93 -51 137 42 28 102 29
151 3z m955 -146 c15 -15 15 -18 1 -32 -35 -35 -125 -2 -95 35 16 18 74 16 94
-3z m279 -37 c8 -14 8 -20 -4 -27 -34 -22 -89 3 -77 34 9 23 66 18 81 -7z
m5432 -134 c-2 -3 -14 0 -25 7 -24 12 -26 28 -9 85 l11 40 14 -64 c7 -35 11
-66 9 -68z m-9054 -981 c44 -21 69 -40 74 -55 3 -12 15 -31 25 -43 10 -11 25
-42 33 -69 17 -54 15 -57 -49 -92 -16 -9 -36 -24 -43 -34 -17 -24 -102 -49
-168 -49 -55 0 -164 29 -225 61 -58 29 -106 92 -111 144 -5 65 8 104 40 117
15 7 38 19 52 29 44 29 78 34 193 29 102 -5 119 -8 179 -38z m1698 -94 c0 -24
-18 -58 -30 -58 -6 0 -10 25 -10 57 0 55 0 56 20 38 11 -10 20 -27 20 -37z
m1353 -7 c15 -8 31 -27 34 -40 13 -51 -60 -75 -150 -50 -31 8 -37 14 -31 27 4
9 8 30 9 45 1 16 8 33 16 38 18 12 87 1 122 -20z m-7515 -10 c26 -11 63 -22
83 -25 43 -7 119 -61 119 -85 0 -32 -29 -58 -92 -81 -133 -49 -240 -61 -338
-40 -99 22 -125 47 -125 121 0 30 8 46 35 74 36 37 58 43 79 23 10 -11 16 -9
28 10 14 19 24 22 90 22 50 0 89 -6 121 -19z m7326 -13 c-8 -29 -10 -31 -23
-23 -20 12 -13 45 10 45 16 0 19 -4 13 -22z m-6645 -81 c28 -37 54 -79 57 -92
6 -24 4 -25 -39 -25 -68 0 -145 29 -172 64 -29 38 -41 81 -25 91 26 16 115 43
121 37 4 -4 30 -38 58 -75z m2460 54 c19 -12 6 -41 -17 -41 -23 0 -46 25 -37
40 8 12 35 13 54 1z m-10729 -26 c0 -13 -37 -31 -46 -23 -2 2 3 14 12 26 16
23 34 21 34 -3z m11285 15 c57 -22 35 -70 -33 -70 -43 0 -72 16 -72 40 0 35
52 50 105 30z m5523 -6 c43 -30 46 -51 13 -84 -34 -35 -63 -38 -108 -10 -44
26 -54 67 -23 92 27 22 88 24 118 2z m-22748 -19 c0 -10 -11 -15 -35 -15 -24
0 -35 5 -35 15 0 10 11 15 35 15 24 0 35 -5 35 -15z m5219 -46 c40 -55 126
-117 174 -125 20 -4 37 -10 37 -14 0 -14 -143 -34 -235 -32 -72 2 -99 6 -134
24 -59 31 -83 64 -73 102 14 51 75 82 164 85 32 1 40 -4 67 -40z m3910 -63
c10 -12 8 -17 -9 -26 -25 -13 -25 -13 -34 18 -6 17 -3 22 12 22 11 0 25 -6 31
-14z m408 -51 c12 -51 6 -55 -33 -22 -23 20 -25 26 -15 45 18 35 37 26 48 -23z
m16797 -254 c24 -27 12 -58 -29 -78 -32 -15 -65 -13 -65 5 0 13 59 92 69 92 4
0 16 -9 25 -19z m-3307 3 c16 -5 26 -18 33 -48 28 -111 101 -228 201 -322 92
-86 234 -174 282 -174 10 0 46 -20 80 -44 34 -24 80 -51 102 -60 88 -34 226
-58 390 -69 l171 -12 69 -51 c97 -71 139 -91 263 -120 146 -35 247 -30 472 26
91 22 210 50 265 61 110 23 140 38 224 111 31 28 110 88 176 134 156 108 275
205 299 242 l19 29 102 -1 c70 -1 107 3 117 12 13 11 22 9 51 -11 23 -16 63
-28 111 -36 79 -11 158 -35 192 -56 12 -8 34 -35 49 -62 15 -26 60 -86 99
-133 111 -132 140 -173 195 -271 11 -20 27 -74 36 -121 15 -82 15 -89 -5 -164
-11 -44 -33 -106 -49 -139 -16 -33 -31 -67 -34 -75 -7 -23 55 -123 86 -138 34
-17 49 -44 45 -84 -5 -47 -46 -73 -116 -73 -55 0 -57 -1 -73 -35 -19 -39 -18
-59 5 -92 40 -57 -1 -143 -75 -154 -49 -8 -50 -26 -5 -74 35 -35 66 -110 66
-156 0 -34 -37 -104 -69 -131 -14 -13 -48 -34 -76 -47 -62 -30 -184 -35 -242
-11 -57 24 -65 16 -57 -59 5 -51 2 -78 -15 -132 -12 -38 -27 -76 -34 -84 -45
-57 -160 -99 -322 -120 -87 -11 -162 -54 -210 -119 -16 -22 -49 -50 -73 -62
-38 -19 -52 -20 -100 -13 -31 5 -103 9 -159 9 -94 0 -103 -2 -127 -24 -14 -14
-26 -30 -26 -36 0 -6 -21 -35 -46 -65 l-46 -54 7 -91 c12 -166 -33 -281 -138
-350 -67 -44 -208 -79 -287 -71 -38 4 -81 0 -138 -14 -46 -11 -103 -20 -128
-20 -71 0 -175 30 -224 64 l-45 32 -80 -19 c-44 -10 -135 -21 -202 -24 -70 -3
-123 -9 -123 -15 0 -5 -16 -37 -36 -71 -42 -71 -74 -191 -74 -277 0 -73 -13
-110 -39 -110 -20 0 -44 41 -56 95 -23 105 -35 116 -129 120 -34 2 -79 12
-101 22 -49 22 -291 28 -341 8 -16 -7 -46 -34 -65 -61 -33 -46 -50 -76 -95
-169 -35 -73 -88 -53 -73 28 4 23 12 55 18 70 31 80 -57 176 -161 177 -32 0
-37 -4 -48 -32 -6 -18 -16 -107 -20 -198 -14 -254 -22 -273 -132 -284 -52 -6
-71 -3 -109 13 -57 25 -119 91 -119 126 0 42 -24 87 -79 145 -30 32 -66 86
-87 130 -19 41 -47 92 -61 112 -32 46 -107 98 -143 98 -55 0 -268 -87 -314
-128 -61 -55 -174 -107 -251 -116 -45 -5 -69 -14 -98 -37 l-39 -31 -76 13
c-42 8 -113 14 -157 14 -73 0 -84 -3 -125 -31 -25 -17 -53 -33 -62 -37 -10 -4
-18 -16 -18 -27 0 -12 -13 -41 -30 -65 -16 -24 -30 -48 -30 -54 0 -6 -11 -18
-24 -27 -49 -31 -65 -75 -59 -157 7 -89 -4 -117 -48 -117 -46 0 -87 26 -109
71 -24 47 -92 94 -149 103 -57 9 -66 26 -39 71 13 20 38 54 56 75 36 43 42 65
13 57 -12 -3 -28 4 -41 18 -12 13 -32 26 -44 29 -29 7 -174 -18 -188 -32 -8
-8 1 -23 31 -52 23 -23 40 -44 37 -47 -2 -3 -25 9 -50 27 -57 38 -107 40 -216
9 -41 -12 -91 -23 -110 -24 -65 -4 -98 -16 -151 -56 -29 -21 -60 -39 -68 -39
-9 0 -32 18 -52 40 -35 38 -40 40 -95 40 -39 0 -68 -6 -86 -18 -44 -29 -211
-144 -241 -166 -20 -15 -30 -17 -39 -8 -8 8 -4 22 18 54 40 59 46 76 33 100
-9 16 -17 19 -42 14 -89 -19 -94 -18 -116 5 -23 25 -26 55 -11 126 6 26 12 81
13 121 4 82 -15 122 -56 122 -27 0 -107 -29 -128 -47 -18 -15 -49 -18 -49 -4
0 5 7 22 15 37 8 16 15 38 15 50 0 20 -7 21 -102 27 -121 6 -231 31 -273 61
-46 34 -164 55 -300 56 -110 0 -211 8 -323 26 -25 4 -73 1 -114 -6 -78 -15
-141 -5 -188 29 -38 27 -99 35 -134 16 -26 -14 -31 -14 -46 0 -22 20 -79 19
-153 -2 l-59 -16 -21 27 c-12 14 -56 43 -97 63 l-75 36 -162 5 c-154 4 -164 3
-212 -19 -28 -13 -53 -33 -57 -44 -12 -37 -73 -112 -114 -140 -36 -25 -196
-72 -208 -61 -2 3 -27 -11 -55 -30 -29 -20 -66 -42 -83 -49 -18 -7 -50 -29
-71 -49 -40 -35 -91 -61 -101 -51 -9 9 43 53 83 69 20 9 60 34 88 57 l52 41
-35 -8 c-19 -5 -87 -9 -150 -9 -138 1 -246 24 -306 67 -50 36 -101 105 -109
151 -12 60 -17 62 -80 33 -72 -33 -81 -33 -99 3 -16 30 -40 41 -94 41 -18 0
-60 11 -93 26 -57 23 -64 24 -117 13 -32 -7 -77 -21 -101 -31 l-43 -18 -24 25
c-26 29 -84 34 -104 11 -35 -43 -110 -75 -240 -104 -74 -17 -157 -34 -185 -37
-27 -4 -75 -13 -107 -20 -49 -11 -66 -11 -132 5 -43 10 -94 30 -116 45 -42 29
-109 112 -111 136 0 8 -7 -3 -14 -24 -35 -94 -112 -156 -228 -183 -73 -17 -82
-17 -145 -1 -53 12 -77 13 -109 6 -25 -7 -57 -7 -84 -2 -38 8 -49 6 -77 -13
-17 -12 -87 -35 -155 -52 -107 -26 -130 -28 -187 -20 -36 5 -83 6 -105 2 -147
-25 -306 23 -365 109 l-23 33 -146 -4 c-80 -2 -161 -7 -179 -12 -37 -10 -158
2 -236 23 -43 11 -55 11 -100 -5 -28 -9 -67 -17 -88 -18 -20 0 -80 -18 -135
-41 -203 -83 -270 -99 -437 -99 -44 0 -97 -9 -151 -25 -77 -24 -84 -28 -90
-56 -4 -16 -18 -43 -32 -59 -21 -26 -32 -30 -73 -30 -53 0 -61 6 -70 60 l-6
35 -134 -3 c-74 -2 -160 -10 -191 -18 -31 -8 -72 -14 -90 -14 -34 0 -58 -11
-271 -123 -305 -162 -276 -150 -358 -152 -82 -2 -127 -19 -153 -58 -23 -35
-187 -88 -187 -61 0 4 20 24 45 46 48 42 56 67 28 89 -36 30 -581 9 -713 -28
-30 -8 -100 -32 -155 -53 -230 -88 -263 -99 -335 -114 -176 -37 -220 -46 -310
-61 -106 -17 -156 -28 -380 -80 -104 -24 -184 -37 -245 -38 -92 -3 -256 -27
-356 -53 -30 -8 -72 -14 -93 -14 -34 0 -111 -15 -210 -41 -21 -6 -60 -14 -85
-19 -43 -7 -164 -36 -256 -62 -99 -27 -188 -61 -221 -83 -23 -16 -50 -25 -73
-25 -50 1 -136 32 -136 49 0 8 21 30 47 49 l48 34 68 -11 c46 -7 80 -7 103 -1
18 6 53 10 76 10 55 0 122 26 217 84 42 25 80 46 85 46 10 0 71 57 71 67 0 15
-35 43 -55 43 -21 0 -142 -26 -250 -53 -58 -15 -619 -52 -635 -42 -4 3 -37 9
-74 14 -51 7 -87 6 -158 -7 -76 -14 -151 -17 -418 -15 -571 4 -1043 14 -1095
24 -100 19 -123 21 -330 26 -126 3 -246 1 -299 -6 -84 -10 -93 -13 -129 -48
-31 -31 -38 -43 -34 -68 10 -68 -52 -169 -134 -220 -68 -42 -198 -105 -217
-105 -7 0 -32 -8 -55 -19 -111 -49 -179 -71 -222 -71 -40 0 -50 5 -79 36 -30
33 -40 37 -107 45 -41 4 -84 8 -96 9 -13 0 -29 13 -42 36 -18 30 -26 35 -53
32 -17 -2 -36 -11 -42 -20 -9 -14 -3 -25 33 -62 38 -39 42 -48 36 -75 -15 -68
-143 -154 -285 -190 -143 -37 -155 -42 -205 -90 -72 -70 -98 -80 -246 -95
-127 -12 -130 -13 -167 -48 -44 -42 -157 -81 -235 -81 -68 1 -152 31 -252 92
-44 27 -99 58 -121 69 -31 16 -43 29 -47 51 -4 17 -22 47 -41 68 -22 25 -36
51 -38 73 -3 33 -5 35 -42 35 -35 0 -39 -3 -50 -34 -15 -47 -79 -81 -151 -81
-41 0 -61 -6 -96 -30 -131 -89 -311 -101 -434 -30 -76 45 -148 37 -230 -24
-32 -24 -76 -49 -99 -56 -22 -7 -60 -19 -83 -28 -59 -20 -174 -12 -230 17 -42
21 -73 63 -73 98 0 44 80 134 145 164 31 15 64 19 151 19 76 0 125 5 155 16
32 11 91 17 214 19 l170 4 51 56 c28 30 57 55 65 55 8 0 50 18 94 40 44 22 86
40 93 40 7 0 29 7 50 17 149 66 328 113 434 113 69 0 148 -20 186 -48 14 -9
46 -28 71 -42 25 -14 52 -37 60 -51 14 -25 13 -29 -12 -62 -35 -47 -34 -57 7
-57 58 0 153 29 254 78 l97 47 133 -2 132 -3 78 40 c88 46 157 93 222 153 58
53 193 138 256 161 27 10 76 31 109 47 42 21 91 34 165 44 95 13 215 41 340
79 25 8 83 21 130 31 181 36 195 41 198 62 2 11 -4 26 -13 33 -27 23 -16 35
73 77 149 72 210 86 369 81 142 -4 171 -12 246 -62 24 -17 35 -17 102 -7 42 6
126 11 188 11 62 0 175 8 252 17 77 9 164 17 192 18 92 4 211 20 258 35 81 25
278 60 340 60 39 0 113 -8 165 -16 204 -35 233 -32 359 42 42 24 96 48 121 53
25 6 65 16 90 23 30 8 176 14 430 17 372 6 387 7 454 30 73 25 136 77 168 139
12 23 34 40 73 58 36 17 61 36 70 54 9 17 29 34 50 41 19 7 35 17 35 22 0 5
-12 25 -26 45 -26 36 -28 37 -98 39 -39 1 -88 -2 -109 -8 -91 -24 -344 -16
-417 15 -10 4 -22 -5 -37 -27 -53 -83 -169 -123 -323 -112 -98 7 -226 9 -355
4 -75 -2 -98 1 -137 18 -49 22 -72 51 -62 78 4 9 -2 28 -14 44 -24 33 -132
450 -132 511 0 129 -56 220 -136 220 l-42 0 -12 -52 c-6 -29 -20 -111 -31
-183 -49 -319 -73 -384 -167 -448 -49 -34 -184 -68 -239 -60 -23 3 -64 0 -91
-7 -106 -25 -347 -17 -422 14 -10 4 -22 -5 -37 -27 -53 -83 -169 -123 -323
-112 -47 4 -148 7 -225 8 -150 3 -205 14 -264 53 -74 49 -95 94 -156 334 -30
121 -55 232 -55 245 0 22 -3 23 -31 15 -17 -5 -54 -25 -83 -44 -28 -19 -68
-42 -88 -52 -33 -15 -37 -22 -43 -65 -21 -150 -62 -242 -133 -296 -48 -36
-190 -74 -247 -66 -24 3 -66 0 -93 -7 -106 -25 -347 -18 -422 14 -10 4 -22 -5
-37 -27 -53 -83 -169 -123 -323 -112 -47 4 -148 7 -225 8 -150 3 -205 14 -264
53 -74 49 -95 94 -156 334 -30 121 -55 239 -55 262 0 46 -35 208 -55 253 -24
56 -66 293 -85 480 -3 39 -16 108 -28 155 -32 132 -60 278 -67 350 -3 36 -15
111 -27 166 l-22 101 -38 -24 c-45 -30 -141 -41 -205 -24 -61 17 -102 61 -98
106 4 46 26 79 75 111 37 25 45 26 135 22 l95 -4 0 28 c0 55 33 163 63 205 36
51 90 90 150 108 25 7 56 20 69 28 13 8 67 25 121 38 81 18 107 20 144 12 36
-9 59 -7 121 9 52 13 93 18 127 14 36 -4 45 -2 32 5 -45 26 -2 61 74 61 51 0
99 -22 99 -46 0 -15 -47 -35 -84 -37 -20 -1 -20 -1 -1 -7 11 -4 39 -20 63 -36
l42 -29 53 22 c139 58 300 82 410 61 56 -10 70 -17 92 -46 l26 -34 54 44 c42
35 69 48 125 60 39 9 76 14 82 10 5 -3 58 -1 116 6 99 12 114 11 198 -8 74
-17 98 -19 133 -10 55 14 170 -6 217 -39 34 -22 35 -22 105 -6 55 12 82 13
116 6 34 -8 61 -7 121 7 97 23 333 58 432 64 41 3 119 2 172 -3 l97 -9 73 -59
c40 -33 86 -69 102 -80 l29 -20 58 58 c62 62 126 90 207 91 20 0 84 5 142 11
94 9 115 8 196 -11 74 -17 98 -19 133 -10 55 14 170 -6 217 -39 34 -22 35 -22
105 -6 55 12 82 13 116 6 36 -9 59 -7 121 9 49 13 94 18 123 15 34 -4 63 1
112 18 340 124 765 148 1477 85 124 -11 293 -25 377 -32 139 -11 153 -14 163
-34 39 -72 207 -129 315 -107 l56 12 54 -44 c78 -63 130 -90 211 -109 65 -16
76 -16 140 -1 113 26 207 103 305 250 l44 66 50 -5 c355 -39 444 -35 691 31
167 44 187 47 304 48 114 0 130 -2 180 -26 31 -14 72 -40 92 -57 l36 -32 57
25 c31 14 65 23 74 20 10 -3 36 -34 60 -69 31 -48 61 -77 117 -115 42 -28 81
-51 87 -51 12 -1 58 -67 58 -85 0 -24 -155 -44 -331 -43 -199 0 -267 -7 -279
-31 -18 -36 -22 -120 -6 -150 17 -34 19 -81 5 -130 -6 -24 -5 -53 5 -103 8
-38 15 -84 15 -103 0 -23 5 -35 18 -39 9 -3 94 -4 189 -3 94 1 174 -1 178 -4
17 -18 26 -152 21 -341 -3 -115 -8 -213 -10 -217 -3 -4 6 -29 19 -56 23 -44
25 -60 25 -175 0 -85 -5 -139 -14 -161 -15 -37 -8 -210 13 -324 14 -76 15
-172 6 -354 -9 -161 -9 -161 60 -161 22 0 55 -4 74 -10 30 -8 37 -7 57 15 27
29 49 31 104 9 47 -19 108 -14 146 11 23 15 25 20 19 69 -4 29 -2 87 5 127 6
41 13 171 15 289 2 118 8 251 14 295 20 142 30 404 20 520 -8 100 -1 278 17
422 5 40 7 42 47 48 29 4 55 1 82 -10 33 -14 58 -16 150 -10 60 3 120 9 133
12 27 6 29 17 37 154 l7 106 50 12 c28 6 54 9 57 5 3 -3 5 -55 3 -116 -2 -61
0 -124 4 -141 l6 -29 63 7 c60 6 63 5 68 -17 15 -61 17 -246 7 -468 -6 -135
-11 -249 -10 -255 1 -5 2 -66 4 -135 2 -69 6 -215 10 -325 4 -110 9 -265 11
-343 2 -79 5 -145 7 -147 6 -6 131 -5 278 2 l145 8 7 60 c14 122 32 363 34
470 1 61 3 116 3 123 2 22 46 13 88 -18 46 -34 52 -50 78 -230 9 -58 22 -125
29 -150 27 -92 47 -200 41 -219 -8 -26 12 -173 25 -181 15 -9 98 -3 130 10 22
9 37 9 63 1 53 -18 137 -16 196 4 l54 17 -7 142 c-4 77 -9 184 -11 237 -6 128
-29 279 -50 319 -10 19 -15 44 -12 59 5 24 -1 54 -25 122 -10 28 -96 99 -121
99 -31 0 -26 17 11 38 48 28 101 85 137 147 33 59 74 224 79 315 1 36 7 124
14 195 6 77 8 185 3 265 -7 149 -5 143 -103 284 -46 67 -170 153 -236 166 -25
4 -145 6 -265 3 l-219 -5 50 61 c44 55 52 74 72 157 l22 95 79 39 c43 22 105
47 136 55 65 17 182 20 231 6 28 -8 38 -6 69 14 50 34 96 45 188 44 178 -2
182 -4 296 -102 76 -66 107 -87 122 -83 11 3 42 0 69 -5 42 -9 53 -8 86 10
168 95 259 116 557 129 l210 10 85 -36 c63 -27 99 -36 140 -36 147 0 447 17
545 30 84 11 127 12 181 5 144 -21 350 -23 657 -7 607 31 794 25 1982 -66 105
-8 330 -13 590 -12 367 1 439 3 570 21 199 28 361 65 522 119 73 24 143 44
156 44 13 0 38 7 55 16 22 11 59 15 124 14 51 0 251 0 443 0 279 1 359 4 394
16 39 13 53 13 118 0 55 -12 175 -18 459 -22 l385 -7 -11 27 c-19 51 -12 109
18 157 16 24 38 52 49 61 22 20 125 58 156 58 33 0 128 30 183 57 42 21 59 24
95 19 31 -4 59 -2 89 9 42 15 135 34 275 56 33 5 79 16 103 25 35 13 87 20
232 32 8 1 25 -1 37 -4z m-22454 -38 c44 -10 26 -31 -30 -34 -35 -2 -53 1 -63
12 -10 13 -9 17 11 25 13 5 31 8 39 6 8 -2 28 -6 43 -9z m25956 -35 c13 -23 5
-31 -30 -31 -33 0 -45 15 -29 35 17 21 47 19 59 -4z m-24008 -41 c6 -11 2 -21
-18 -38 -24 -22 -33 -24 -107 -20 -101 6 -186 39 -165 64 11 14 33 16 147 12
103 -3 135 -7 143 -18z m2869 -91 c0 -5 -10 -9 -21 -9 -18 0 -19 2 -9 15 12
15 30 12 30 -6z m22644 5 c70 -18 119 -51 142 -97 9 -17 23 -38 32 -46 23 -24
72 -133 72 -162 0 -59 -97 -139 -192 -158 -23 -5 -72 -16 -106 -26 -81 -21
-134 -10 -220 46 -79 52 -105 102 -105 204 0 192 162 295 377 239z m-11315
-21 l24 -16 -21 -18 c-24 -19 -60 -15 -69 9 -4 8 2 21 12 28 24 18 26 17 54
-3z m962 -13 c45 -13 82 -51 77 -81 -2 -13 -18 -34 -37 -46 -71 -48 -182 -15
-189 55 -4 40 10 59 52 71 42 12 55 13 97 1z m-517 -22 c20 -29 5 -48 -39 -48
-48 0 -65 9 -65 34 0 31 7 36 51 36 28 0 42 -6 53 -22z m1442 7 c43 -18 132
-92 139 -116 4 -11 3 -28 0 -39 -8 -25 -76 -70 -105 -70 -12 0 -30 -5 -41 -10
-25 -14 -132 5 -179 31 -39 22 -80 78 -80 109 0 11 20 41 45 65 44 45 45 45
115 45 39 0 86 -6 106 -15z m-15311 -15 c-3 -5 -10 -10 -16 -10 -5 0 -9 5 -9
10 0 6 7 10 16 10 8 0 12 -4 9 -10z m-3505 -40 c0 -5 -7 -10 -15 -10 -8 0 -15
5 -15 10 0 6 7 10 15 10 8 0 15 -4 15 -10z m1565 -12 c14 -6 25 -14 25 -18 0
-16 -27 -30 -59 -30 -40 0 -97 35 -71 44 8 2 22 7 30 9 26 9 48 7 75 -5z m400
-116 c202 -64 220 -153 43 -210 -80 -26 -151 -34 -303 -35 -131 0 -202 17
-275 68 -74 52 -70 93 15 154 63 44 104 51 305 46 117 -3 170 -8 215 -23z
m-760 -17 c49 -25 60 -34 60 -55 0 -20 -10 -30 -45 -47 -38 -20 -60 -23 -152
-23 -88 0 -117 4 -163 23 -60 24 -71 40 -56 80 18 47 53 58 181 55 105 -3 120
-6 175 -33z m28230 -31 c33 -22 37 -39 14 -68 -24 -30 -63 -34 -91 -9 -24 21
-23 48 2 73 24 24 43 25 75 4z m-24995 -10 c11 -13 10 -18 -7 -36 -17 -16 -24
-18 -42 -9 -20 11 -28 41 -14 54 12 13 50 7 63 -9z m15478 4 c21 -21 13 -28
-31 -28 -40 0 -67 13 -67 32 0 13 85 9 98 -4z m-14940 -15 c2 -9 -7 -13 -27
-13 -30 0 -46 11 -34 24 11 11 56 2 61 -11z m23902 -44 c143 -32 232 -131 189
-208 -43 -76 -203 -115 -293 -72 -25 13 -57 36 -71 53 -60 71 -8 198 94 228
34 11 30 11 81 -1z m-26614 -174 c19 -15 19 -15 0 -30 -42 -32 -148 -10 -133
29 8 21 105 23 133 1z m27687 -183 c15 -15 27 -35 27 -43 0 -24 -44 -59 -81
-65 -29 -5 -40 -1 -68 25 -35 32 -36 57 -3 94 25 29 93 23 125 -11z m-31830
-554 c50 -15 97 -69 97 -111 0 -45 -49 -120 -91 -139 -86 -40 -225 -34 -271
12 -37 37 -35 66 6 137 69 118 125 139 259 101z m14587 -145 c3 -3 10 -35 17
-71 15 -88 6 -241 -19 -318 -17 -53 -25 -64 -61 -84 -23 -13 -55 -34 -71 -47
-16 -13 -30 -22 -32 -21 -5 6 -1 545 5 556 2 4 155 -10 161 -15z m-12002 -35
c16 -16 15 -28 0 -28 -22 0 -41 17 -34 29 9 14 19 14 34 -1z m26898 1 c3 -6 1
-16 -4 -21 -13 -13 -45 8 -36 23 7 12 31 11 40 -2z m886 -124 c15 -16 28 -38
28 -50 0 -27 -36 -61 -72 -70 -88 -22 -154 70 -96 132 31 33 101 27 140 -12z
m769 -3 c64 -37 89 -59 117 -104 91 -147 -29 -298 -236 -298 -74 0 -165 24
-200 52 -24 20 -82 152 -82 186 0 36 36 105 73 140 52 49 96 63 188 59 75 -4
95 -9 140 -35z m574 -292 c8 -13 -42 -110 -57 -110 -19 0 -48 32 -48 52 0 43
85 90 105 58z m-2408 -155 c45 -32 25 -85 -32 -85 -47 0 -64 68 -22 88 29 14
29 14 54 -3z m330 -82 c94 -71 105 -82 101 -99 -2 -10 -23 -23 -53 -33 -27 -9
-64 -24 -80 -33 -42 -23 -115 -6 -161 38 -40 37 -42 59 -11 105 48 72 127 80
204 22z m1175 -84 c40 -20 68 -52 68 -75 0 -13 9 -28 20 -34 25 -13 28 -84 5
-117 -43 -61 -154 -92 -232 -66 -138 47 -183 122 -134 228 21 48 40 65 84 76
42 11 160 4 189 -12z m603 -13 c29 -19 49 -69 41 -101 -13 -49 -105 -80 -166
-55 -70 29 -92 109 -44 157 24 24 30 25 87 19 33 -3 70 -12 82 -20z m-1292
-42 c29 -17 19 -58 -15 -62 -58 -7 -95 48 -45 67 26 10 35 9 60 -5z m-613
-1029 c77 -54 92 -70 85 -98 -6 -21 -3 -26 16 -29 67 -10 88 -152 36 -240 -34
-59 -81 -91 -171 -119 -131 -41 -271 -10 -369 80 -76 71 -95 186 -47 282 43
83 129 138 219 140 20 0 45 5 56 10 35 16 136 1 175 -26z m1054 -15 c35 0 211
-73 249 -102 56 -45 74 -89 67 -170 -4 -59 -9 -71 -40 -103 -19 -20 -57 -49
-85 -63 -44 -23 -62 -26 -145 -26 -82 0 -103 3 -153 27 -78 36 -133 81 -158
128 l-19 39 21 66 c26 79 71 134 145 176 29 16 55 36 58 45 6 14 8 14 24 -1
10 -9 27 -16 36 -16z m-2004 -6 c61 -33 95 -87 85 -133 -12 -56 -84 -101 -160
-101 -47 0 -109 26 -121 50 -7 12 -28 33 -48 46 -20 14 -36 30 -35 37 1 14
115 109 144 119 27 9 104 -1 135 -18z m-21720 -168 c93 -49 160 -130 160 -194
0 -105 -176 -147 -450 -107 -52 8 -197 27 -239 32 -58 6 -91 39 -91 91 0 99
34 125 224 173 97 25 127 28 236 26 99 -2 132 -6 160 -21z m17180 -351 c5 -14
21 -30 35 -35 31 -12 42 -35 25 -55 -10 -12 -15 -12 -35 1 -26 17 -65 77 -65
100 0 24 30 16 40 -11z m-19644 -82 c131 -66 71 -142 -126 -159 -55 -4 -110 0
-204 16 -192 32 -257 71 -190 115 68 44 197 66 359 59 93 -4 117 -9 161 -31z
m19732 -125 c-3 -7 -11 -13 -18 -13 -7 0 -15 6 -17 13 -3 7 4 12 17 12 13 0
20 -5 18 -12z m-2028 -98 c0 -15 -36 -12 -49 4 -9 11 -9 15 1 19 16 5 48 -10
48 -23z m-20872 0 c48 -11 110 -28 137 -39 28 -10 82 -22 120 -26 93 -8 197
-40 220 -65 36 -40 -11 -76 -114 -87 -42 -4 -65 -11 -70 -22 -14 -27 -5 -130
13 -149 25 -29 20 -40 -34 -67 -27 -14 -50 -30 -50 -36 0 -18 -130 -147 -181
-180 -49 -31 -200 -80 -314 -101 -49 -9 -73 -8 -107 1 -52 15 -119 65 -160
120 -45 61 -70 74 -136 66 -124 -14 -202 33 -202 120 0 35 6 51 29 77 41 47
108 78 169 78 l50 0 42 67 c86 135 171 201 315 244 80 23 166 23 273 -1z
m21753 -28 c-25 -4 -81 16 -81 28 0 5 24 1 52 -8 39 -13 47 -18 29 -20z m-541
-84 c53 -38 67 -69 52 -124 -17 -63 -58 -123 -110 -157 -38 -26 -42 -32 -42
-69 0 -45 29 -104 87 -175 34 -43 35 -43 99 -43 55 0 68 3 87 24 12 13 41 43
63 68 23 24 50 67 60 96 19 53 40 66 63 38 9 -10 3 -21 -23 -49 -31 -33 -35
-44 -39 -104 -3 -61 -23 -132 -39 -149 -4 -3 -19 6 -35 20 -15 14 -34 26 -41
26 -18 0 -69 -57 -93 -103 -24 -47 -74 -80 -109 -72 -14 4 -38 18 -53 33 -25
24 -28 33 -24 70 3 24 12 51 21 61 23 25 20 43 -14 98 -16 26 -43 89 -61 138
-17 50 -44 114 -61 143 -53 94 -25 178 75 226 65 31 95 32 137 4z m1530 4 c0
-10 -5 -23 -11 -29 -6 -6 -16 -21 -23 -34 -6 -12 -15 -21 -21 -20 -14 3 -10
67 5 86 17 21 50 19 50 -3z m-1260 -202 c0 -38 -4 -70 -9 -70 -5 0 -16 12 -26
26 -13 20 -22 24 -41 20 -17 -5 -24 -2 -24 9 0 8 11 17 25 21 14 3 32 19 41
35 24 47 34 34 34 -41z m694 4 c10 -27 -12 -54 -44 -54 -38 0 -57 31 -34 54
20 21 70 21 78 0z m374 -32 c2 -7 -3 -12 -12 -12 -9 0 -16 7 -16 16 0 17 22
14 28 -4z m-541 -64 c29 -27 29 -42 -2 -62 -29 -19 -48 -20 -99 -2 -38 13 -56
30 -56 54 0 16 53 7 86 -14 24 -16 34 -10 34 23 0 29 7 29 37 1z m606 -17 c4
-15 -2 -18 -39 -18 -30 0 -44 5 -44 14 0 7 9 13 20 13 11 0 23 7 26 15 8 19
29 4 37 -24z m-23900 -16 c110 -75 77 -212 -68 -281 -59 -28 -150 -32 -194 -9
-36 18 -79 69 -87 101 -9 35 14 107 45 143 45 52 95 71 186 71 69 0 85 -3 118
-25z m22737 -40 c0 -8 -4 -15 -9 -15 -13 0 -22 16 -14 24 11 11 23 6 23 -9z
m533 -100 c-4 -15 -36 -12 -41 3 -3 9 3 13 19 10 13 -1 23 -7 22 -13z m-347
-39 c27 -20 6 -43 -25 -27 -22 12 -26 23 -14 34 9 10 17 9 39 -7z m374 -66
c16 -10 9 -14 -40 -23 -14 -2 -33 -8 -42 -12 -11 -4 -18 -3 -18 4 0 7 15 18
33 26 38 17 47 18 67 5z m-18812 -40 c28 -26 27 -32 -2 -67 -25 -30 -109 -63
-159 -63 -38 0 -77 17 -77 34 0 25 72 76 135 95 77 25 77 25 103 1z m18950
-114 c3 -22 0 -26 -23 -26 -14 0 -44 9 -66 21 -31 15 -40 25 -37 42 8 53 119
21 126 -37z m180 6 c2 -7 -3 -12 -12 -12 -9 0 -16 7 -16 16 0 17 22 14 28 -4z
m-18774 -93 c32 -25 33 -49 2 -78 -50 -47 -172 -64 -236 -33 -48 23 -51 53 -8
85 65 50 194 64 242 26z m18744 -6 c-4 -36 -38 -45 -38 -10 0 27 7 37 27 37
10 0 13 -9 11 -27z m-107 -95 c7 -13 13 -51 13 -86 0 -57 -3 -65 -34 -97 -35
-36 -80 -47 -80 -21 0 8 14 25 31 37 32 22 32 22 25 92 -4 46 -3 74 5 83 16
20 26 17 40 -8z m-18730 -189 c-28 -23 -76 -22 -76 1 0 8 16 23 35 32 31 16
36 16 50 2 13 -14 13 -17 -9 -35z m-2649 4 c10 -9 18 -24 18 -34 0 -25 -51
-64 -117 -90 -106 -41 -350 -28 -341 18 4 20 92 68 178 99 83 29 233 33 262 7z
m21239 -150 c11 -55 33 -75 83 -77 76 -3 105 -50 71 -116 -35 -67 -107 -90
-159 -49 -26 20 -27 24 -21 83 6 50 4 65 -9 75 -15 13 -15 62 0 109 7 23 28 7
35 -25z m-131 -138 c0 -8 -4 -15 -10 -15 -5 0 -10 7 -10 15 0 8 5 15 10 15 6
0 10 -7 10 -15z m-502 -72 c2 -24 -2 -34 -17 -43 -28 -15 -61 3 -61 33 0 31
20 48 50 45 20 -2 26 -9 28 -35z m-21068 -157 c0 -2 -7 -7 -16 -10 -8 -3 -12
-2 -9 4 6 10 25 14 25 6z m21848 -28 c-6 -18 -28 -21 -28 -4 0 9 7 16 16 16 9
0 14 -5 12 -12z m-282 -177 c-21 -23 -54 -33 -63 -19 -8 15 25 38 55 38 24 0
24 -1 8 -19z"/>
<path d="M27170 12551 c-15 -29 -12 -71 5 -77 11 -5 15 -22 15 -66 0 -33 9
-96 21 -141 23 -91 21 -177 -5 -206 -8 -9 -27 -43 -42 -74 -33 -73 -40 -164
-26 -352 6 -77 7 -162 4 -189 -7 -48 -9 -52 -81 -103 -74 -52 -100 -82 -101
-115 0 -13 11 -18 48 -20 45 -3 48 -5 71 -51 l23 -48 -28 -62 c-23 -52 -28
-79 -31 -167 -5 -134 6 -160 93 -210 34 -19 71 -43 81 -52 45 -41 118 -21 339
89 145 72 180 85 224 87 l53 1 14 -42 c8 -24 20 -43 27 -43 40 0 167 115 203
184 18 35 10 45 -64 85 -43 23 -48 30 -51 64 -5 63 55 225 113 302 21 28 22
42 28 250 3 121 11 248 17 283 12 70 8 84 -46 144 -54 60 -64 123 -39 238 19
88 19 136 -1 144 -9 3 -20 4 -25 0 -5 -3 -24 11 -43 30 -40 44 -81 47 -171 15
-51 -18 -67 -20 -105 -10 -25 6 -76 16 -115 22 -38 7 -139 34 -223 60 -84 27
-157 49 -162 49 -5 0 -14 -9 -20 -19z"/>
<path d="M36091 12603 c-15 -32 -14 -48 4 -63 9 -8 15 -30 15 -59 0 -25 9 -82
20 -126 25 -102 25 -151 0 -195 -67 -116 -65 -102 -65 -380 l0 -254 -55 -38
c-80 -56 -110 -87 -110 -113 0 -21 5 -24 43 -27 39 -3 44 -6 65 -49 l22 -46
-27 -59 c-25 -53 -28 -70 -28 -164 0 -125 10 -147 84 -184 26 -14 61 -36 77
-49 27 -23 34 -24 84 -16 35 5 115 38 220 88 168 82 236 106 263 95 9 -3 21
-21 27 -40 15 -44 42 -45 98 -4 54 39 122 126 122 156 0 18 -11 29 -50 49 -56
29 -73 53 -64 92 17 77 60 189 89 232 l32 49 12 228 c7 126 15 249 18 274 4
37 0 51 -21 80 -76 104 -83 131 -61 247 8 43 15 93 15 111 0 28 -3 32 -28 32
-20 0 -35 9 -50 29 -30 41 -67 46 -141 20 -41 -14 -75 -19 -99 -15 -133 19
-165 26 -234 45 -43 12 -103 31 -135 42 -32 11 -74 24 -94 28 -33 8 -38 6 -48
-16z"/>
<path d="M20886 10860 c-2 -8 -10 -85 -16 -170 -14 -201 -30 -276 -89 -413
-60 -140 -64 -158 -51 -209 34 -124 30 -204 -19 -395 -28 -108 -55 -169 -95
-213 -42 -46 -53 -96 -60 -265 -3 -71 -8 -140 -12 -151 l-6 -21 54 18 c67 23
165 24 262 3 60 -14 78 -14 90 -5 8 7 33 50 55 96 22 46 49 88 60 94 28 15 72
13 95 -4 30 -22 105 -18 172 9 32 14 58 29 57 33 -2 4 -17 51 -34 103 -17 52
-37 115 -45 140 -8 25 -14 83 -14 128 0 57 -5 95 -17 119 -14 29 -15 59 -10
199 5 154 4 167 -14 185 -10 10 -30 19 -43 19 -21 0 -26 10 -52 102 l-29 102
-55 16 c-46 13 -58 21 -72 50 -9 19 -19 58 -23 85 -10 79 -83 362 -89 345z"/>
<path d="M16559 11363 c-1 -5 0 -20 1 -36 2 -28 -19 -53 -88 -107 -31 -24 -32
-28 -35 -103 -2 -71 0 -80 21 -97 12 -10 28 -20 35 -23 13 -4 14 -54 3 -167
-4 -36 -11 -137 -17 -225 -7 -106 -15 -167 -25 -182 -8 -12 -14 -31 -14 -41 0
-10 -9 -54 -20 -98 -28 -105 -28 -294 0 -509 11 -88 20 -171 20 -186 l0 -26
75 4 c55 3 97 12 153 34 71 29 84 31 156 25 51 -4 85 -11 97 -22 9 -8 25 -44
35 -80 15 -58 37 -94 49 -82 3 2 8 34 11 69 4 39 13 72 24 84 10 11 25 34 33
51 33 64 66 94 105 94 47 1 116 50 176 127 62 79 149 249 191 376 46 137 52
188 29 247 -15 37 -18 81 -20 245 l-2 200 -74 40 c-154 83 -167 96 -177 170
-5 32 -13 44 -40 60 -19 11 -47 33 -64 48 -34 32 -49 30 -117 -16 -106 -73
-160 -68 -270 26 -50 42 -90 67 -138 83 -68 24 -111 30 -113 17z"/>
<path d="M32097 10721 c-37 -22 -77 -43 -89 -47 -13 -4 -44 -25 -69 -48 -25
-23 -101 -72 -168 -111 -134 -76 -198 -131 -230 -200 -25 -53 -26 -83 -5 -150
23 -74 21 -176 -6 -284 -21 -86 -22 -98 -9 -150 9 -39 14 -140 15 -341 l1
-285 -40 -125 c-53 -169 -59 -260 -23 -382 56 -189 174 -454 224 -505 40 -40
42 -81 7 -184 -30 -85 -27 -123 11 -168 28 -34 83 -56 116 -46 13 4 44 20 71
36 26 16 56 29 66 29 30 0 55 -37 86 -133 35 -106 47 -117 140 -117 71 0 130
25 224 95 61 45 153 95 177 95 5 0 30 13 55 29 55 34 87 95 125 234 l27 98
-36 37 c-19 20 -49 65 -66 99 l-31 62 26 54 c49 108 57 179 48 417 -14 375
-12 436 12 460 l20 21 -24 212 -24 211 26 51 c40 77 79 262 79 373 0 93 -1 94
-35 130 -78 82 -100 134 -124 282 -21 130 -25 134 -159 138 l-104 4 -79 74
c-74 69 -83 74 -124 74 -32 0 -60 -10 -111 -39z m298 -1645 c37 -16 47 -50 23
-74 -19 -19 -82 -14 -112 9 -32 25 -33 43 -4 63 28 20 49 20 93 2z m-401 -786
c149 -76 191 -124 201 -230 8 -86 -2 -101 -46 -67 -19 14 -50 28 -70 32 -54
10 -60 17 -78 97 -13 53 -29 89 -57 129 -72 97 -69 99 50 39z"/>
<path d="M33633 6523 c-18 -6 -16 -33 1 -33 19 0 31 19 20 30 -5 4 -15 5 -21
3z"/>
<path d="M33826 6494 c-46 -46 20 -127 90 -110 47 12 43 85 -6 111 -37 19 -65
19 -84 -1z"/>
<path d="M34257 5994 c-14 -14 -7 -54 12 -63 24 -13 44 8 39 41 -3 23 -36 37
-51 22z"/>
<path d="M21080 5929 c-80 -19 -101 -19 -164 -3 -22 5 -27 2 -37 -22 -34 -91
-117 -523 -103 -545 3 -5 0 -51 -5 -102 -6 -50 -15 -146 -20 -212 -6 -86 -15
-134 -31 -170 -14 -32 -29 -103 -41 -200 -10 -82 -28 -198 -39 -256 -14 -73
-20 -148 -20 -243 0 -127 -10 -210 -50 -435 -15 -84 -13 -109 13 -125 40 -25
105 -30 148 -11 38 17 40 17 95 -4 63 -24 103 -27 109 -8 2 6 9 48 15 92 22
156 28 190 39 218 6 16 11 45 11 66 0 53 18 98 41 104 28 8 323 -3 331 -11 11
-11 47 -151 64 -247 22 -120 45 -195 64 -205 10 -5 32 -5 56 1 21 6 68 15 104
20 99 13 218 41 236 54 14 10 15 20 6 66 -6 30 -16 88 -22 129 -7 41 -19 107
-27 145 -9 39 -17 95 -18 126 -2 31 -12 99 -23 150 -30 141 -65 392 -67 494
-2 84 -47 302 -73 352 -5 10 -15 99 -22 198 -11 165 -15 185 -41 239 -28 58
-37 118 -20 144 7 12 -2 64 -30 165 l-10 37 -104 0 c-58 0 -107 -4 -110 -10
-12 -19 -90 -12 -110 10 -22 24 -35 24 -145 -1z m133 -981 c3 -18 22 -124 42
-236 19 -112 33 -207 30 -212 -3 -5 -46 -9 -95 -9 -108 0 -104 -17 -55 197 18
84 40 187 46 227 13 78 23 87 32 33z"/>
<path d="M23385 5934 c-88 -7 -196 -14 -241 -13 -107 1 -109 -2 -99 -134 4
-56 7 -174 5 -262 -1 -133 2 -174 18 -240 32 -123 35 -169 22 -253 -10 -64
-10 -100 2 -212 10 -84 14 -183 11 -261 -4 -95 -1 -144 12 -205 9 -43 20 -155
25 -249 6 -144 5 -174 -8 -194 -12 -21 -14 -48 -8 -165 4 -78 8 -172 9 -211
l2 -70 40 -7 c115 -20 231 -7 287 34 14 10 27 10 63 0 96 -26 105 5 105 343 0
138 3 299 6 359 l6 109 128 -6 c127 -6 228 7 255 34 5 5 21 9 36 9 15 0 40 5
56 11 31 11 123 97 123 114 0 6 13 26 28 45 42 50 48 67 60 145 22 142 24 174
29 370 6 265 7 275 22 310 19 43 8 247 -19 349 -36 142 -59 164 -205 202 -138
36 -274 55 -380 53 -49 0 -121 1 -160 4 -38 3 -142 -1 -230 -9z m474 -599 c36
-18 44 -64 25 -153 -10 -53 -10 -71 1 -110 17 -54 10 -218 -11 -268 -19 -46
-32 -52 -122 -56 l-82 -3 0 303 0 302 80 0 c52 0 91 -5 109 -15z"/>
<path d="M26215 5934 c-88 -7 -196 -14 -241 -13 -107 1 -109 -2 -99 -134 4
-56 7 -174 5 -262 -1 -133 2 -174 18 -240 32 -123 35 -169 22 -253 -10 -64
-10 -100 2 -212 10 -84 14 -183 11 -261 -4 -95 -1 -144 12 -205 9 -43 20 -155
25 -249 6 -144 5 -174 -8 -194 -12 -21 -14 -48 -8 -165 4 -78 8 -172 9 -211
l2 -70 40 -7 c115 -20 231 -7 287 34 14 10 27 10 63 0 96 -26 105 5 105 343 0
138 3 299 6 359 l6 109 128 -6 c127 -6 228 7 255 34 5 5 21 9 36 9 15 0 40 5
56 11 31 11 123 97 123 114 0 6 13 26 28 45 42 50 48 67 60 145 22 142 24 174
29 370 6 265 7 275 22 310 19 43 8 247 -19 349 -36 142 -59 164 -205 202 -138
36 -274 55 -380 53 -49 0 -121 1 -160 4 -38 3 -142 -1 -230 -9z m474 -599 c36
-18 44 -64 25 -153 -10 -53 -10 -71 1 -110 17 -54 10 -218 -11 -268 -19 -46
-32 -52 -122 -56 l-82 -3 0 303 0 302 80 0 c52 0 91 -5 109 -15z"/>
<path d="M32663 5894 c-49 -43 -53 -49 -53 -91 0 -44 1 -45 28 -38 93 23 144
12 172 -40 14 -26 13 -29 -13 -51 -44 -38 -100 -33 -144 11 -20 20 -37 34 -39
32 -2 -2 1 -19 6 -38 6 -18 10 -104 11 -189 0 -85 4 -173 8 -195 l7 -40 13 40
c45 137 98 244 153 313 32 40 58 80 58 88 0 8 -9 31 -20 51 -11 21 -20 57 -20
81 0 37 -6 50 -34 78 -45 45 -70 43 -133 -12z"/>
<path d="M32165 5904 c-53 -14 -75 -16 -193 -11 -55 3 -75 0 -79 -10 -4 -9
-28 -13 -89 -13 -78 0 -85 -2 -93 -22 -79 -206 -82 -218 -84 -369 -2 -83 -10
-180 -19 -229 -20 -102 -55 -303 -73 -418 -7 -45 -15 -85 -17 -88 -3 -2 -8 73
-11 168 -4 135 -10 188 -27 243 -12 39 -23 112 -26 165 -3 52 -12 113 -20 134
-9 22 -15 67 -14 100 2 83 -10 198 -22 213 -8 10 -15 10 -32 1 -31 -17 -144
-13 -196 7 -45 17 -132 26 -285 28 l-80 2 -8 -45 c-4 -25 -19 -124 -33 -220
-14 -96 -28 -190 -31 -208 -3 -21 1 -41 12 -59 14 -21 16 -37 10 -82 -7 -51
-17 -320 -16 -400 1 -19 -5 -41 -13 -50 -8 -9 -19 -43 -25 -76 -14 -82 -24
-332 -12 -339 5 -3 5 -25 0 -53 -5 -26 -9 -68 -8 -93 0 -25 -4 -61 -10 -80 -6
-19 -11 -71 -11 -115 -1 -44 -5 -100 -11 -125 -13 -62 -28 -155 -36 -216 -6
-54 6 -75 30 -55 7 5 22 8 33 6 121 -23 161 -26 189 -14 17 6 57 11 90 10 90
-4 98 6 130 164 15 74 30 196 36 283 12 201 41 458 53 470 8 7 19 -88 31 -258
4 -63 15 -121 55 -305 16 -71 32 -159 35 -195 3 -36 8 -80 12 -98 l6 -34 121
5 c93 3 214 19 243 32 4 2 52 260 58 315 4 30 22 115 41 189 27 102 37 167 44
275 5 78 14 153 19 167 8 20 10 21 10 5 1 -11 10 -101 22 -200 14 -123 19
-204 14 -251 -14 -149 -12 -248 7 -315 10 -36 22 -107 27 -157 6 -51 13 -97
16 -103 11 -18 113 -11 188 14 63 21 81 23 121 14 56 -12 129 -3 146 17 9 11
10 50 1 167 -23 323 -33 656 -26 864 7 197 6 219 -15 314 -19 89 -21 111 -12
178 19 131 -11 689 -39 744 -16 32 -51 35 -134 12z"/>
<path d="M9840 5898 c-30 -5 -69 -7 -87 -4 -18 2 -35 0 -41 -7 -9 -13 -68
-418 -81 -563 -4 -50 -12 -97 -16 -105 -5 -7 -10 -85 -12 -173 -1 -92 -8 -185
-16 -216 l-14 -55 -7 105 c-4 58 -16 137 -27 177 -22 81 -101 464 -120 591
l-13 82 -62 0 c-36 0 -74 7 -94 16 -26 14 -49 15 -124 10 -95 -7 -120 -19
-130 -59 -14 -57 -36 -237 -36 -295 0 -35 -9 -107 -20 -160 -17 -85 -90 -351
-107 -392 -9 -23 -22 54 -22 140 -1 41 -8 119 -16 173 -8 54 -14 142 -14 195
1 141 -50 461 -79 495 -21 24 -75 22 -131 -6 -75 -38 -98 -41 -137 -16 -43 26
-75 23 -186 -23 l-80 -33 5 -70 c3 -38 21 -133 40 -210 19 -77 38 -180 42
-229 4 -49 16 -114 26 -144 10 -30 19 -70 19 -89 0 -19 5 -43 11 -55 11 -21
24 -92 39 -223 20 -174 49 -342 64 -372 9 -17 23 -67 31 -110 8 -43 21 -103
30 -133 8 -30 15 -81 15 -112 0 -32 8 -78 19 -105 10 -26 22 -68 26 -93 4 -25
14 -73 22 -107 l15 -61 84 1 c51 1 88 7 96 15 17 17 31 15 75 -7 27 -14 57
-20 104 -19 l66 0 26 82 c14 44 31 113 37 151 6 39 22 95 35 125 20 47 25 83
34 241 11 189 27 298 41 282 5 -4 16 -51 25 -103 9 -52 19 -98 22 -103 3 -5 9
-43 14 -85 5 -41 13 -80 19 -86 5 -5 10 -17 10 -26 0 -9 20 -56 45 -104 25
-49 45 -98 45 -109 0 -11 10 -50 21 -86 l21 -66 116 1 c94 1 118 5 127 18 13
18 39 18 127 4 87 -14 91 -9 112 124 9 62 26 163 36 223 10 61 26 180 35 266
9 86 26 205 39 265 51 237 130 556 173 688 51 162 73 258 73 324 0 26 7 74 15
107 21 89 20 105 -10 105 -13 0 -35 -5 -49 -11 -20 -9 -44 -7 -118 10 -99 23
-140 24 -228 9z"/>
<path d="M12040 5898 c-30 -5 -69 -7 -87 -4 -18 2 -35 0 -41 -7 -9 -13 -68
-418 -81 -563 -4 -50 -12 -97 -16 -105 -5 -7 -10 -85 -12 -173 -1 -92 -8 -185
-16 -216 l-14 -55 -7 105 c-4 58 -16 137 -27 177 -22 81 -101 464 -120 591
l-13 82 -62 0 c-36 0 -74 7 -94 16 -26 14 -49 15 -124 10 -95 -7 -120 -19
-130 -59 -14 -57 -36 -237 -36 -295 0 -35 -9 -107 -20 -160 -17 -85 -90 -351
-107 -392 -9 -23 -22 54 -22 140 -1 41 -8 119 -16 173 -8 54 -14 142 -14 195
1 141 -50 461 -79 495 -21 24 -75 22 -131 -6 -75 -38 -98 -41 -137 -16 -43 26
-75 23 -186 -23 l-80 -33 5 -70 c3 -38 21 -133 40 -210 19 -77 38 -180 42
-229 4 -49 16 -114 26 -144 10 -30 19 -70 19 -89 0 -19 5 -43 11 -55 11 -21
24 -92 39 -223 20 -174 49 -342 64 -372 9 -17 23 -67 31 -110 8 -43 21 -103
30 -133 8 -30 15 -81 15 -112 0 -32 8 -78 19 -105 10 -26 22 -68 26 -93 4 -25
14 -73 22 -107 l15 -61 84 1 c51 1 88 7 96 15 17 17 31 15 75 -7 27 -14 57
-20 104 -19 l66 0 26 82 c14 44 31 113 37 151 6 39 22 95 35 125 20 47 25 83
34 241 11 189 27 298 41 282 5 -4 16 -51 25 -103 9 -52 19 -98 22 -103 3 -5 9
-43 14 -85 5 -41 13 -80 19 -86 5 -5 10 -17 10 -26 0 -9 20 -56 45 -104 25
-49 45 -98 45 -109 0 -11 10 -50 21 -86 l21 -66 116 1 c94 1 118 5 127 18 13
18 39 18 127 4 87 -14 91 -9 112 124 9 62 26 163 36 223 10 61 26 180 35 266
9 86 26 205 39 265 51 237 130 556 173 688 51 162 73 258 73 324 0 26 7 74 15
107 21 89 20 105 -10 105 -13 0 -35 -5 -49 -11 -20 -9 -44 -7 -118 10 -99 23
-140 24 -228 9z"/>
<path d="M14240 5898 c-30 -5 -69 -7 -87 -4 -18 2 -35 0 -41 -7 -9 -13 -68
-418 -81 -563 -4 -50 -12 -97 -16 -105 -5 -7 -10 -85 -12 -173 -1 -92 -8 -185
-16 -216 l-14 -55 -7 105 c-4 58 -16 137 -27 177 -22 81 -101 464 -120 591
l-13 82 -62 0 c-36 0 -74 7 -94 16 -26 14 -49 15 -124 10 -95 -7 -120 -19
-130 -59 -14 -57 -36 -237 -36 -295 0 -35 -9 -107 -20 -160 -17 -85 -90 -351
-107 -392 -9 -23 -22 54 -22 140 -1 41 -8 119 -16 173 -8 54 -14 142 -14 195
1 141 -50 461 -79 495 -21 24 -75 22 -131 -6 -75 -38 -98 -41 -137 -16 -43 26
-75 23 -186 -23 l-80 -33 5 -70 c3 -38 21 -133 40 -210 19 -77 38 -180 42
-229 4 -49 16 -114 26 -144 10 -30 19 -70 19 -89 0 -19 5 -43 11 -55 11 -21
24 -92 39 -223 20 -174 49 -342 64 -372 9 -17 23 -67 31 -110 8 -43 21 -103
30 -133 8 -30 15 -81 15 -112 0 -32 8 -78 19 -105 10 -26 22 -68 26 -93 4 -25
14 -73 22 -107 l15 -61 84 1 c51 1 88 7 96 15 17 17 31 15 75 -7 27 -14 57
-20 104 -19 l66 0 26 82 c14 44 31 113 37 151 6 39 22 95 35 125 20 47 25 83
34 241 11 189 27 298 41 282 5 -4 16 -51 25 -103 9 -52 19 -98 22 -103 3 -5 9
-43 14 -85 5 -41 13 -80 19 -86 5 -5 10 -17 10 -26 0 -9 20 -56 45 -104 25
-49 45 -98 45 -109 0 -11 10 -50 21 -86 l21 -66 116 1 c94 1 118 5 127 18 13
18 39 18 127 4 87 -14 91 -9 112 124 9 62 26 163 36 223 10 61 26 180 35 266
9 86 26 205 39 265 51 237 130 556 173 688 51 162 73 258 73 324 0 26 7 74 15
107 21 89 20 105 -10 105 -13 0 -35 -5 -49 -11 -20 -9 -44 -7 -118 10 -99 23
-140 24 -228 9z"/>
<path d="M28509 5866 c-2 -2 -44 -6 -94 -10 -178 -11 -245 -24 -287 -53 -72
-49 -128 -153 -128 -237 0 -23 -5 -47 -12 -54 -9 -9 -8 -42 2 -141 9 -85 11
-189 7 -302 -5 -153 -3 -183 15 -259 18 -75 19 -94 9 -166 -15 -107 -14 -142
5 -200 17 -49 32 -261 37 -509 2 -111 4 -125 32 -180 21 -42 49 -75 92 -112
76 -63 122 -78 218 -68 76 8 106 8 295 4 91 -2 135 1 160 12 77 31 156 82 183
116 59 78 90 246 91 498 l1 160 -108 -3 c-60 -2 -142 2 -183 9 -56 9 -81 9
-99 1 -24 -11 -25 -15 -25 -109 -1 -127 -16 -243 -35 -262 -16 -16 -101 -21
-147 -8 -21 6 -30 17 -38 49 -19 68 -14 1124 5 1171 4 10 15 22 25 27 30 16
123 23 153 11 l28 -11 -3 -144 c-1 -80 0 -147 2 -150 9 -8 132 -26 186 -26 29
0 58 6 70 15 13 10 45 14 106 15 l87 0 7 37 c4 20 3 86 -1 147 -5 61 -7 163
-6 226 3 140 -12 257 -42 330 -32 79 -36 84 -95 120 -46 28 -59 32 -97 27 -50
-7 -215 10 -229 24 -10 9 -178 13 -187 5z"/>
<path d="M16641 5822 c-6 -21 -10 -162 -9 -327 2 -429 1 -501 -7 -720 -5 -142
-4 -216 5 -255 19 -93 33 -323 34 -583 1 -237 2 -249 21 -260 30 -17 311 -23
340 -7 16 8 40 10 72 6 124 -17 187 -18 322 -6 80 7 157 16 171 20 l25 7 1
139 c0 76 3 167 5 202 8 94 -1 106 -86 110 -130 6 -150 5 -241 -3 -50 -4 -107
-5 -128 -1 -36 7 -36 7 -36 58 0 28 6 121 14 207 8 86 20 318 26 516 9 280 15
365 26 388 12 22 17 86 21 278 4 147 2 249 -3 249 -5 0 -27 -5 -49 -10 -30 -7
-43 -6 -55 5 -9 8 -37 14 -65 14 -28 0 -70 1 -95 2 -58 2 -80 1 -167 -7 -43
-4 -85 -2 -102 4 -30 10 -31 10 -40 -26z"/>
<path d="M16400 5819 c-14 -6 -77 -9 -140 -9 -63 1 -165 -1 -226 -5 l-111 -8
3 -251 c2 -138 8 -290 14 -338 9 -68 8 -114 -2 -205 -14 -124 -15 -282 -3
-520 9 -181 -6 -327 -37 -360 -20 -21 -30 -23 -123 -23 -89 0 -104 3 -120 20
-25 28 -29 97 -15 236 7 67 15 326 18 594 8 733 8 778 -3 788 -9 8 -90 3 -206
-14 -32 -4 -57 -2 -80 9 -20 9 -79 17 -146 21 l-113 6 0 -48 c0 -27 -6 -97
-14 -158 -10 -78 -13 -212 -12 -469 1 -350 2 -361 23 -401 26 -49 27 -58 15
-324 -5 -113 -8 -208 -6 -211 2 -4 13 -69 24 -145 31 -214 86 -305 217 -354
30 -11 73 -30 96 -42 38 -19 61 -21 227 -24 102 -1 197 -7 212 -13 46 -17 90
-15 143 8 27 12 81 29 119 37 39 8 78 22 88 30 19 18 60 101 113 229 l33 80
13 270 c7 149 12 324 11 390 -5 342 -3 416 14 497 12 59 18 149 21 313 3 127
5 268 6 315 2 92 -3 99 -53 79z"/>
<path d="M24880 5810 c-126 -7 -207 -40 -274 -110 -86 -90 -109 -200 -103
-505 2 -156 7 -209 19 -241 13 -32 17 -78 16 -240 0 -109 0 -228 0 -264 1
-114 11 -303 21 -375 5 -38 14 -111 20 -161 11 -108 37 -171 86 -212 47 -38
93 -51 223 -62 204 -18 227 -21 278 -32 43 -9 57 -8 86 6 20 10 79 28 132 41
139 35 198 64 220 109 23 49 43 148 56 281 12 125 17 551 10 790 -4 145 -3
163 14 188 17 25 19 47 18 220 -3 410 -4 432 -32 462 -34 37 -44 41 -156 70
-85 22 -117 25 -240 24 -78 -1 -147 2 -155 6 -15 10 -118 12 -239 5z m320
-621 c18 -32 30 -241 32 -519 1 -140 2 -311 2 -380 1 -173 -10 -252 -36 -269
-31 -19 -176 -18 -195 2 -13 13 -16 73 -20 409 -10 786 -13 740 40 763 18 8
62 14 99 15 58 0 69 -3 78 -21z"/>
<path d="M29700 5810 c-126 -7 -207 -40 -274 -110 -86 -90 -109 -200 -103
-505 2 -156 7 -209 19 -241 13 -32 17 -78 16 -240 0 -109 0 -228 0 -264 1
-114 11 -303 21 -375 5 -38 14 -111 20 -161 11 -108 37 -171 86 -212 47 -38
93 -51 223 -62 204 -18 227 -21 278 -32 43 -9 57 -8 86 6 20 10 79 28 132 41
139 35 198 64 220 109 23 49 43 148 56 281 12 125 17 551 10 790 -4 145 -3
163 14 188 17 25 19 47 18 220 -3 410 -4 432 -32 462 -34 37 -44 41 -156 70
-85 22 -117 25 -240 24 -78 -1 -147 2 -155 6 -15 10 -118 12 -239 5z m320
-621 c18 -32 30 -241 32 -519 1 -140 2 -311 2 -380 1 -173 -10 -252 -36 -269
-31 -19 -176 -18 -195 2 -13 13 -16 73 -20 409 -10 786 -13 740 40 763 18 8
62 14 99 15 58 0 69 -3 78 -21z"/>
<path d="M34253 5464 c-9 -23 13 -40 32 -24 8 7 15 19 15 26 0 19 -39 18 -47
-2z"/>
<path d="M22185 4784 c-16 -2 -60 -9 -97 -15 -66 -11 -68 -11 -74 -46 -11 -60
2 -143 28 -170 22 -24 26 -25 93 -17 39 5 203 9 365 9 162 0 312 4 333 9 41 9
50 26 15 26 -22 0 -22 1 5 25 32 31 35 71 9 130 l-18 40 -230 0 c-126 1 -267
4 -314 7 -47 3 -98 4 -115 2z"/>
<path d="M33583 4462 c-18 -15 -38 -42 -44 -61 -11 -32 -10 -36 15 -58 15 -13
31 -23 36 -23 17 0 68 51 84 84 36 76 -24 115 -91 58z"/>
<path d="M18848 4252 c-86 -14 -88 -15 -88 -43 0 -34 18 -41 112 -44 l68 -2 0
54 c0 29 -1 52 -2 52 -2 -1 -42 -8 -90 -17z"/>
<path d="M33068 4185 c-25 -14 -49 -34 -53 -44 -8 -26 9 -58 36 -66 30 -10 92
21 107 53 11 23 10 30 -6 51 -25 33 -30 34 -84 6z"/>
<path d="M18750 4105 c0 -15 4 -24 10 -20 6 3 10 12 10 20 0 8 -4 17 -10 20
-6 4 -10 -5 -10 -20z"/>
<path d="M18916 4101 c-14 -16 -15 -20 -2 -30 19 -16 36 -6 36 19 0 27 -15 32
-34 11z"/>
<path d="M14545 4020 c-51 -16 -69 -61 -68 -162 1 -59 7 -98 18 -120 9 -18 19
-55 22 -81 4 -34 12 -51 26 -58 30 -17 274 -14 322 4 l40 14 8 164 c4 90 5
174 2 186 -10 43 -58 57 -205 60 -74 1 -149 -2 -165 -7z"/>
<path d="M27445 4020 c-51 -16 -69 -61 -68 -162 1 -59 7 -98 18 -120 9 -18 19
-55 22 -81 4 -34 12 -51 26 -58 30 -17 274 -14 322 4 l40 14 8 164 c4 90 5
174 2 186 -10 43 -58 57 -205 60 -74 1 -149 -2 -165 -7z"/>
<path d="M24131 3552 c-5 -10 -7 -23 -3 -28 20 -30 82 -18 82 15 0 33 -62 44
-79 13z"/>
<path d="M31160 3344 c-14 -7 -33 -14 -42 -14 -10 0 -24 -13 -33 -30 -15 -28
-14 -31 14 -62 l29 -33 31 23 c17 12 35 22 40 22 20 0 41 33 41 65 0 46 -30
57 -80 29z"/>
<path d="M15395 3310 c11 -5 27 -9 35 -9 13 -1 13 0 0 9 -8 5 -24 9 -35 9
l-20 0 20 -9z"/>
<path d="M15031 3286 c-42 -45 3 -96 54 -62 30 20 33 61 6 76 -28 14 -35 13
-60 -14z"/>
<path d="M29711 3274 c-12 -15 -21 -38 -21 -51 0 -27 50 -83 74 -83 22 0 56
49 56 80 0 36 -35 80 -65 80 -14 0 -32 -11 -44 -26z"/>
<path d="M30415 3280 c-18 -20 -18 -21 1 -47 28 -37 47 -47 77 -39 33 8 42 37
22 76 -13 24 -22 30 -49 30 -20 0 -40 -8 -51 -20z"/>
<path d="M30860 3287 c-37 -10 -46 -16 -48 -38 -2 -17 6 -37 23 -58 66 -78
176 -4 139 93 -7 19 -48 20 -114 3z"/>
<path d="M31024 3279 c-10 -17 13 -36 27 -22 12 12 4 33 -11 33 -5 0 -12 -5
-16 -11z"/>
<path d="M13182 3028 c-20 -26 -24 -59 -8 -82 42 -65 159 -22 140 51 -10 36
-109 59 -132 31z"/>
<path d="M29903 3022 c-24 -18 -73 -104 -73 -127 0 -7 12 -23 26 -34 29 -23
101 -29 134 -11 38 20 55 143 24 174 -21 21 -83 20 -111 -2z"/>
<path d="M17030 2995 c-15 -18 -15 -19 34 -39 42 -17 56 -14 56 13 0 39 -64
57 -90 26z"/>
<path d="M16257 2984 c-8 -8 1 -24 14 -24 5 0 9 7 9 15 0 15 -12 20 -23 9z"/>
<path d="M11630 2765 c0 -9 5 -15 11 -13 6 2 11 8 11 13 0 5 -5 11 -11 13 -6
2 -11 -4 -11 -13z"/>
<path d="M15523 2765 c-35 -15 -42 -32 -18 -41 24 -10 70 11 70 31 0 24 -13
27 -52 10z"/>
<path d="M15256 2693 c-12 -12 -6 -33 9 -33 8 0 15 6 15 14 0 17 -14 28 -24
19z"/>
<path d="M10325 2643 c-43 -7 -54 -21 -31 -39 24 -17 161 -20 172 -3 18 29
-66 54 -141 42z"/>
<path d="M11280 2618 c-11 -12 -19 -27 -17 -32 6 -19 25 -17 46 5 17 18 23 20
36 9 8 -7 19 -10 23 -6 8 9 -35 46 -54 46 -7 0 -22 -10 -34 -22z"/>
<path d="M14705 2633 c-16 -3 -34 -9 -39 -14 -6 -5 -17 -9 -27 -9 -22 0 -69
-38 -69 -56 0 -8 8 -17 18 -20 9 -3 27 -10 39 -16 28 -14 83 -3 124 25 36 24
48 59 29 83 -12 14 -19 15 -75 7z"/>
<path d="M14130 2612 c-25 -20 -23 -48 5 -58 21 -9 57 25 53 50 -4 28 -30 31
-58 8z"/>
<path d="M13384 2596 c-65 -28 -47 -86 26 -87 83 -2 132 32 112 76 -10 22 -18
25 -59 25 -27 -1 -62 -7 -79 -14z"/>
<path d="M11554 2568 c-9 -14 23 -38 52 -38 23 0 34 16 27 38 -6 15 -69 16
-79 0z"/>
<path d="M10846 2561 c-9 -15 23 -36 36 -23 5 5 7 15 4 21 -9 13 -33 14 -40 2z"/>
<path d="M10714 2549 c-3 -6 0 -17 8 -25 13 -13 16 -13 27 0 7 8 10 20 6 26
-8 13 -32 13 -41 -1z"/>
<path d="M12534 2499 c-3 -6 -2 -15 4 -21 15 -15 46 -5 50 15 3 12 -3 17 -22
17 -14 0 -28 -5 -32 -11z"/>
<path d="M9468 2419 c-26 -15 -22 -48 7 -61 32 -14 57 5 53 41 -3 29 -31 38
-60 20z"/>
<path d="M34843 3414 c-8 -22 15 -43 27 -24 5 8 10 21 10 28 0 17 -30 15 -37
-4z"/>
<path d="M35880 3350 c0 -5 5 -10 10 -10 6 0 10 5 10 10 0 6 -4 10 -10 10 -5
0 -10 -4 -10 -10z"/>
<path d="M33675 3360 c-4 -6 -3 -16 3 -22 6 -6 12 -6 17 2 4 6 3 16 -3 22 -6
6 -12 6 -17 -2z"/>
</g>
</svg>
