<svg width="561" height="241" viewBox="0 0 561 241" fill="none" xmlns="http://www.w3.org/2000/svg">
<path d="M78.5498 112.814H78.5485L34.8305 112.927C34.83 112.927 34.8296 112.927 34.8292 112.927C30.6016 112.927 27.5125 111.855 25.477 109.815C23.4412 107.776 22.3766 104.686 22.3766 100.473C22.3766 97.0555 21.864 94.6532 20.3437 93.1329C18.8235 91.6127 16.4211 91.1001 13.0032 91.1001C8.76666 91.1001 5.67738 90.0276 3.64386 87.9883C1.61009 85.9488 0.549316 82.8592 0.549316 78.6462V13.8769C0.549316 9.64818 1.61793 6.55877 3.65534 4.52326C5.69284 2.48767 8.78238 1.42298 13.0032 1.42298C17.2231 1.42298 20.3128 2.49528 22.3507 4.53507C24.3887 6.57495 25.4571 9.66485 25.4571 13.8769V78.6462C25.4571 82.0642 25.9697 84.4665 27.4899 85.9868C29.0101 87.507 31.4125 88.0196 34.8305 88.0196H78.5498C81.9677 88.0196 84.3701 87.507 85.8904 85.9868C87.4106 84.4665 87.9232 82.0642 87.9232 78.6462V12.9539C87.9232 8.71734 88.9958 5.62806 91.035 3.59454C93.0745 1.56077 96.1641 0.5 100.377 0.5C104.589 0.5 107.679 1.56838 109.719 3.60636C111.759 5.64425 112.831 8.73401 112.831 12.9539V78.5329C112.831 82.7611 111.759 85.8506 109.719 87.8863C107.679 89.9222 104.59 90.9867 100.377 90.9867C96.9592 90.9867 94.5568 91.4994 93.0365 93.0196C91.5163 94.5398 91.0037 96.9422 91.0037 100.36C91.0037 104.588 89.9313 107.678 87.8917 109.714C85.8521 111.749 82.7623 112.814 78.5498 112.814Z" stroke="#2A7A28"/>
<path d="M201.87 112.846H201.869L136.356 112.927C136.356 112.927 136.355 112.927 136.355 112.927C132.119 112.927 129.03 111.855 126.996 109.816C124.963 107.776 123.902 104.686 123.902 100.473V12.9539C123.902 8.71687 124.971 5.6277 127.008 3.59438C129.045 1.56088 132.134 0.5 136.356 0.5C140.576 0.5 143.666 1.5685 145.703 3.60619C147.741 5.64389 148.81 8.73354 148.81 12.9539V78.5329C148.81 81.9508 149.322 84.3532 150.842 85.8734C152.363 87.3936 154.765 87.9062 158.183 87.9062H180.043C183.461 87.9062 185.863 87.3936 187.383 85.8734C188.903 84.3532 189.416 81.9508 189.416 78.5329C189.416 74.3047 190.489 71.2151 192.528 69.1794C194.568 67.1436 197.658 66.079 201.87 66.079C205.288 66.079 207.69 65.5664 209.211 64.0462C210.731 62.5259 211.243 60.1236 211.243 56.7056C211.243 52.4774 212.316 49.3879 214.355 47.3522C216.395 45.3163 219.485 44.2517 223.697 44.2517C227.909 44.2517 230.999 45.3239 233.039 47.364C235.079 49.4041 236.151 52.4941 236.151 56.7056C236.151 60.9172 235.079 64.0072 233.039 66.0472C230.999 68.0873 227.909 69.1595 223.697 69.1595C220.279 69.1595 217.877 69.6721 216.357 71.1923C214.836 72.7126 214.324 75.1149 214.324 78.5329V100.393C214.324 104.621 213.251 107.71 211.212 109.746C209.172 111.782 206.082 112.846 201.87 112.846Z" stroke="#2A7A28"/>
<path d="M267.676 112.927C263.447 112.927 260.358 111.855 258.322 109.815C256.286 107.776 255.222 104.686 255.222 100.473V56.6732C255.222 53.2552 254.709 50.8529 253.189 49.3326C251.669 47.8124 249.266 47.2998 245.848 47.2998C241.612 47.2998 238.522 46.2273 236.489 44.188C234.455 42.1485 233.394 39.0589 233.394 34.8459C233.394 31.428 232.882 29.0256 231.362 27.5053C229.841 25.9851 227.439 25.4725 224.021 25.4725C219.784 25.4725 216.695 24.3999 214.662 22.3607C212.628 20.3212 211.567 17.2315 211.567 13.0186C211.567 8.80704 212.639 5.71704 214.679 3.67696C216.719 1.63688 219.809 0.564697 224.021 0.564697H311.46C315.688 0.564697 318.778 1.63331 320.813 3.67072C322.849 5.70822 323.914 8.79776 323.914 13.0186C323.914 17.2384 322.841 20.3282 320.801 22.3661C318.762 24.4041 315.672 25.4725 311.46 25.4725H267.74C264.322 25.4725 261.92 25.9851 260.4 27.5053C258.88 29.0256 258.367 31.428 258.367 34.8459C258.367 38.2639 258.88 40.6662 260.4 42.1865C261.92 43.7067 264.322 44.2193 267.74 44.2193C271.969 44.2193 275.058 45.2917 277.094 47.3312C279.13 49.3709 280.194 52.4607 280.194 56.6732V100.391C280.178 104.644 279.098 107.755 277.049 109.805C275.001 111.855 271.904 112.927 267.676 112.927Z" stroke="#2A7A28"/>
<path d="M428.174 112.782L428.171 112.782L406.282 112.927C406.281 112.927 406.28 112.927 406.28 112.927C402.053 112.927 398.964 111.855 396.928 109.815C394.893 107.776 393.828 104.686 393.828 100.473C393.828 97.0555 393.315 94.6532 391.795 93.1329C390.275 91.6127 387.873 91.1001 384.455 91.1001C380.218 91.1001 377.129 90.0276 375.095 87.9883C373.062 85.9488 372.001 82.8592 372.001 78.6462C372.001 75.2283 371.488 72.8259 369.968 71.3057C368.448 69.7855 366.045 69.2729 362.627 69.2729C359.209 69.2729 356.807 69.7855 355.287 71.3057C353.767 72.8259 353.254 75.2283 353.254 78.6462V100.393C353.254 104.621 352.182 107.71 350.142 109.746C348.102 111.782 345.013 112.846 340.8 112.846C336.589 112.846 333.499 111.774 331.458 109.734C329.418 107.694 328.346 104.604 328.346 100.393V34.8135C328.346 30.5853 329.419 27.4958 331.458 25.4601C333.498 23.4242 336.588 22.3597 340.8 22.3597C344.21 22.3597 346.612 21.8469 348.134 20.3271C349.657 18.8071 350.173 16.405 350.173 12.9863C350.173 8.74928 351.242 5.66011 353.279 3.62679C355.317 1.59329 358.406 0.53241 362.627 0.53241H406.347C410.575 0.53241 413.665 1.60102 415.7 3.63843C417.736 5.67593 418.801 8.76548 418.801 12.9863C418.801 16.4042 419.313 18.8066 420.833 20.3268C422.354 21.847 424.756 22.3597 428.174 22.3597C432.402 22.3597 435.492 23.4321 437.527 25.4716C439.563 27.5113 440.628 30.6011 440.628 34.8135V56.6732C440.628 60.9014 439.555 63.9909 437.516 66.0266C435.476 68.0625 432.386 69.1271 428.174 69.1271H406.314C402.896 69.1271 400.494 69.6397 398.974 71.1599C397.454 72.6801 396.941 75.0825 396.941 78.5005C396.941 81.9184 397.454 84.3208 398.974 85.841C400.494 87.3613 402.896 87.8739 406.314 87.8739H428.174C432.402 87.8739 435.492 88.9463 437.527 90.9858C439.563 93.0255 440.628 96.1153 440.628 100.328C440.628 104.539 439.556 107.629 437.516 109.669C435.475 111.709 432.385 112.782 428.174 112.782ZM362.563 25.4887C359.145 25.4887 356.742 26.0013 355.222 27.5216C353.702 29.0418 353.189 31.4442 353.189 34.8622C353.189 38.2801 353.702 40.6825 355.222 42.2027C356.742 43.7229 359.145 44.2355 362.563 44.2355H406.282C409.7 44.2355 412.102 43.7229 413.622 42.2027C415.143 40.6825 415.655 38.2801 415.655 34.8622C415.655 31.4442 415.143 29.0418 413.622 27.5216C412.102 26.0013 409.7 25.4887 406.282 25.4887H362.563Z" stroke="#2A7A28"/>
<path d="M560.468 100.393L560.468 100.401C560.539 104.653 559.501 107.76 557.477 109.807C555.452 111.855 552.356 112.927 548.127 112.927C543.899 112.927 540.809 111.855 538.774 109.815C536.738 107.776 535.673 104.686 535.673 100.473C535.673 97.0555 535.161 94.6531 533.64 93.1329C532.12 91.6127 529.718 91.1001 526.3 91.1001H482.532C479.114 91.1001 476.712 91.6127 475.191 93.1329C473.671 94.6531 473.158 97.0555 473.158 100.473C473.158 104.702 472.086 107.791 470.047 109.827C468.007 111.863 464.917 112.927 460.705 112.927C456.493 112.927 453.403 111.855 451.363 109.815C449.323 107.775 448.251 104.685 448.251 100.473V56.6732C448.251 52.445 449.323 49.3554 451.363 47.3197C453.402 45.2839 456.492 44.2193 460.705 44.2193C464.123 44.2193 466.525 43.7067 468.045 42.1865C469.565 40.6662 470.078 38.2639 470.078 34.8459C470.078 30.6177 471.15 27.5282 473.19 25.4925C475.23 23.4566 478.319 22.392 482.532 22.392C485.95 22.392 488.352 21.8794 489.872 20.3592C491.393 18.8389 491.905 16.4365 491.905 13.0186C491.905 8.78157 492.974 5.6924 495.011 3.65907C497.048 1.62558 500.138 0.564697 504.359 0.564697C508.58 0.564697 511.669 1.63319 513.707 3.67089C515.745 5.70858 516.813 8.79823 516.813 13.0186C516.813 16.4365 517.326 18.8389 518.846 20.3592C520.366 21.8794 522.769 22.392 526.187 22.392C530.415 22.392 533.504 23.4645 535.54 25.504C537.576 27.5437 538.64 30.6334 538.64 34.8459C538.64 38.2639 539.153 40.6662 540.673 42.1865C542.193 43.7067 544.596 44.2193 548.014 44.2193C552.242 44.2193 555.331 45.2917 557.367 47.3312C559.403 49.3709 560.468 52.4607 560.468 56.6732L560.468 100.393ZM513.846 34.8621L513.846 34.8586C513.822 31.4399 513.291 29.039 511.761 27.5203C510.231 26.0016 507.826 25.4887 504.408 25.4887C500.99 25.4887 498.587 26.0013 497.067 27.5215C495.547 29.0418 495.034 31.4442 495.034 34.8621C495.034 39.0903 493.962 42.1799 491.922 44.2156C489.883 46.2514 486.793 47.316 482.58 47.316C479.163 47.316 476.76 47.8286 475.24 49.3488C473.72 50.8691 473.207 53.2714 473.207 56.6894C473.207 60.1073 473.72 62.5097 475.24 64.0299C476.76 65.5501 479.163 66.0628 482.58 66.0628H526.3C529.718 66.0628 532.12 65.5501 533.64 64.0299C535.161 62.5097 535.673 60.1073 535.673 56.6894C535.673 53.2714 535.161 50.8691 533.64 49.3488C532.12 47.8286 529.718 47.316 526.3 47.316C522.072 47.316 518.982 46.2436 516.946 44.2041C514.911 42.1644 513.846 39.0746 513.846 34.8621Z" stroke="#2A7A28"/>
<path d="M25.3754 227.891L25.3754 227.893C25.3913 232.139 24.3377 235.244 22.3082 237.291C20.279 239.337 17.1906 240.41 12.9539 240.41C8.71734 240.41 5.62806 239.337 3.59454 237.298C1.56077 235.258 0.5 232.169 0.5 227.956V162.328C0.5 158.1 1.56861 155.01 3.60603 152.975C5.64352 150.939 8.73307 149.874 12.9539 149.874C16.3718 149.874 18.7742 149.362 20.2944 147.842C21.8147 146.321 22.3273 143.919 22.3273 140.501C22.3273 136.273 23.3997 133.183 25.4392 131.148C27.4789 129.112 30.5687 128.047 34.7812 128.047H78.5005C82.7287 128.047 85.8182 129.12 87.8539 131.159C89.8898 133.199 90.9544 136.289 90.9544 140.501C90.9544 143.919 91.467 146.321 92.9872 147.842C94.5075 149.362 96.9098 149.874 100.328 149.874C104.556 149.874 107.645 150.947 109.681 152.986C111.717 155.026 112.782 158.116 112.782 162.328V184.204C112.782 188.432 111.709 191.522 109.67 193.558C107.63 195.593 104.54 196.658 100.328 196.658H34.7488C31.3308 196.658 28.9285 197.171 27.4082 198.691C25.888 200.211 25.3754 202.613 25.3754 206.031L25.3754 227.891ZM34.8135 152.971C31.3956 152.971 28.9932 153.484 27.473 155.004C25.9528 156.524 25.4401 158.927 25.4401 162.344C25.4401 165.762 25.9528 168.165 27.473 169.685C28.9932 171.205 31.3956 171.718 34.8135 171.718H78.5329C81.9508 171.718 84.3532 171.205 85.8734 169.685C87.3936 168.165 87.9063 165.762 87.9063 162.344C87.9063 158.927 87.3936 156.524 85.8734 155.004C84.3532 153.484 81.9508 152.971 78.5329 152.971H34.8135Z" stroke="#2A7A28"/>
<path d="M158.215 240.41C153.979 240.41 150.889 239.337 148.856 237.298C146.822 235.259 145.761 232.169 145.761 227.956C145.761 224.538 145.249 222.136 143.728 220.615C142.208 219.095 139.806 218.582 136.388 218.582C132.151 218.582 129.062 217.51 127.029 215.471C124.995 213.431 123.934 210.342 123.934 206.129V162.409C123.934 158.181 125.003 155.091 127.04 153.056C129.078 151.02 132.167 149.955 136.388 149.955C139.806 149.955 142.208 149.443 143.728 147.923C145.249 146.402 145.761 144 145.761 140.582C145.761 136.353 146.83 133.264 148.867 131.228C150.905 129.193 153.994 128.128 158.215 128.128H405.958C410.186 128.128 413.276 129.201 415.312 131.24C417.347 133.28 418.412 136.37 418.412 140.582C418.412 144 418.925 146.402 420.445 147.923C421.965 149.443 424.367 149.955 427.785 149.955C432.014 149.955 435.103 151.028 437.139 153.067C439.175 155.107 440.239 158.197 440.239 162.409V206.129C440.239 210.357 439.167 213.446 437.127 215.482C435.088 217.518 431.998 218.582 427.785 218.582C424.367 218.582 421.965 219.095 420.445 220.615C418.925 222.136 418.412 224.538 418.412 227.956C418.412 232.184 417.34 235.274 415.3 237.309C413.26 239.345 410.171 240.41 405.958 240.41H158.215ZM158.215 152.971C154.797 152.971 152.395 153.484 150.875 155.004C149.354 156.524 148.842 158.927 148.842 162.345V206.064C148.842 209.482 149.354 211.884 150.875 213.404C152.395 214.925 154.797 215.437 158.215 215.437H405.958C409.376 215.437 411.778 214.925 413.299 213.404C414.819 211.884 415.332 209.482 415.332 206.064V162.345C415.332 158.927 414.819 156.524 413.299 155.004C411.778 153.484 409.376 152.971 405.958 152.971H158.215Z" stroke="#2A7A28"/>
<path d="M473.158 227.891V227.892C473.166 232.137 472.098 235.242 470.054 237.29C468.01 239.337 464.909 240.41 460.672 240.41C456.444 240.41 453.354 239.337 451.319 237.298C449.283 235.258 448.218 232.168 448.218 227.956V162.328C448.218 158.1 449.291 155.011 451.33 152.975C453.37 150.939 456.46 149.874 460.672 149.874C464.09 149.874 466.492 149.362 468.013 147.842C469.533 146.321 470.046 143.919 470.046 140.501C470.046 136.273 471.118 133.183 473.157 131.148C475.197 129.112 478.287 128.047 482.499 128.047H526.219C530.447 128.047 533.536 129.12 535.572 131.159C537.608 133.199 538.673 136.289 538.673 140.501C538.673 143.919 539.185 146.321 540.705 147.842C542.226 149.362 544.628 149.874 548.046 149.874C552.274 149.874 555.364 150.947 557.399 152.986C559.435 155.026 560.5 158.116 560.5 162.328V184.204C560.5 188.432 559.428 191.522 557.388 193.558C555.348 195.593 552.259 196.658 548.046 196.658H482.532C479.114 196.658 476.711 197.171 475.191 198.691C473.671 200.211 473.158 202.613 473.158 206.031V227.891ZM482.548 152.971C479.13 152.971 476.728 153.484 475.207 155.004C473.687 156.524 473.175 158.927 473.175 162.344C473.175 165.762 473.687 168.165 475.207 169.685C476.728 171.205 479.13 171.718 482.548 171.718H526.267C529.685 171.718 532.088 171.205 533.608 169.685C535.128 168.165 535.641 165.762 535.641 162.344C535.641 158.927 535.128 156.524 533.608 155.004C532.088 153.484 529.685 152.971 526.267 152.971H482.548Z" stroke="#2A7A28"/>
</svg>
