<?xml version="1.0" encoding="iso-8859-1"?>
<!-- Generator: Adobe Illustrator 25.4.1, SVG Export Plug-In . SVG Version: 6.00 Build 0)  -->
<svg version="1.1" id="Layer_1" xmlns="http://www.w3.org/2000/svg" xmlns:xlink="http://www.w3.org/1999/xlink" x="0px" y="0px"
	 width="1296px" height="1296px" viewBox="0 0 1296 1296" enable-background="new 0 0 1296 1296" xml:space="preserve">
<g>
	<path fill="#FFFFFF" stroke="#000000" stroke-width="8" stroke-miterlimit="10" d="M345.58,593.075
		c-29.532,0-58.111-21.53-58.111-50.299v-73.353h49.346v68.971c0,5.906,3.049,8.955,9.336,8.955c5.716,0,8.574-3.049,8.574-8.955
		v-68.971h49.537v73.353C404.262,571.164,375.493,593.075,345.58,593.075z"/>
	<path fill="#FFFFFF" stroke="#000000" stroke-width="8" stroke-miterlimit="10" d="M550.552,762.99v28.77h-49.918V674.395h67.637
		c22.482,0,41.535,21.72,41.535,44.393C609.806,746.033,585.99,762.99,550.552,762.99z M550.552,706.594v27.436
		c8.383,0,15.623-5.144,15.623-13.527C566.175,712.119,559.507,706.594,550.552,706.594z"/>
	<g id="_x37_KtjKt_00000068653957967355377420000014511741144012040065_">
		<g>
			<path fill="#FFFFFF" stroke="#000000" stroke-width="8" stroke-miterlimit="10" d="M458.817,639.419c-25.746,0-50.586,0-75.876,0
				c1.771-3.729,3.358-7.096,4.966-10.453c9.948-20.776,19.878-41.559,29.856-62.321c9.671-20.124,19.412-40.218,29.082-60.343
				c5.187-10.794,10.394-21.581,15.37-32.464c1.439-3.148,3.151-4.452,7.002-4.415c22.348,0.215,44.7,0.105,67.05,0.105
				c1.148,0,2.295,0,4.02,0c-15.198,32.63-30.199,64.838-45.436,97.55c25.311,0,50.195,0,75.984,0
				c-61.698,75.348-122.839,150.014-183.98,224.681c-0.142-0.084-0.285-0.168-0.427-0.252
				C410.458,741.023,434.486,690.539,458.817,639.419z"/>
		</g>
	</g>
</g>
<g>
</g>
<g>
</g>
<g>
</g>
<g>
</g>
<g>
</g>
<g>
</g>
</svg>
